<?xml version="1.0" encoding="UTF-8"?>
<svg id="Capa_2" data-name="Capa 2" xmlns="http://www.w3.org/2000/svg" viewBox="0 0 48 48">
  <g id="Capa_1-2" >
    <path d="M45.41,45.01c-1.95,2.04-4.75,2.74-7.46,2.89-9.06-.24-18.27.31-27.31,0-3.5-.12-6.99-.94-8.97-4.2-1.28-2.1-1.49-4.12-1.57-6.57-.3-9.3.18-18.8.06-28.11C.66,2.81,4.77-.04,10.52.02c9.83.09,19.69-.16,29.51.13,5,.65,7.77,4.38,7.98,9.5v28.05c-.12,2.71-.71,5.35-2.59,7.32ZM15.13,5.04s-.09.06,0,.13c.08.67-.11,1.62,0,2.26.02.11.07.18.18.16l.37-2.51c.03-.26-.33-.37-.5-.25-.07.05-.04.16-.06.23ZM11.57,5.94c-.19.06-.21.33-.13.5l1.5,1.8c.41.28.25-.08.12-.32-.25-.48-.77-1.39-1.08-1.8-.12-.15-.21-.25-.41-.18ZM18.97,6.32c-.14-.06-.35-.12-.48-.04-.36.61-1.07,1.26-1.38,1.87-.12.24-.11.38.16.22.15-.09,1.37-1.26,1.53-1.45s.22-.34.17-.6ZM21.06,8.22c-.15-.01-.1-.02-.12.1-.16,1.14-.31,1.35-1.47,1.49l.93.27c.49.18.54.85.53,1.32.18.03.1-.04.13-.15.09-.34.08-.77.36-1.03.25-.24.78-.3,1.1-.35.02-.08-.06-.08-.12-.09-.24-.08-.51-.08-.73-.19-.45-.22-.58-.89-.61-1.37ZM15.88,10.05c-.04-1.42-1.92-1.64-2.23-.23-.19.88.36,1.33,1.12,1.49.51,1.91,1.25,3.75,1.71,5.68.05.04,1.09-.28,1.18-.33.06-.03.12-.05.1-.14l-2.5-5.38.28.12c1.07,1.34,2.18,2.65,3.26,3.98.13.16.5.75.61.83.16.1,1.56-.37,1.83-.45-1.3-1.15-2.58-2.32-3.88-3.46-.45-.39-1.19-.89-1.56-1.3-.08-.09-.14-.14-.12-.29l.29.05,7.88,4.2c.91-.08,1.8-.46,2.7-.62l-.12-.09-10.56-4.05ZM11.95,10.07c-.06-.1-1.97-.52-2.23-.64-.49-.05-.54.54-.05.63.54.1,1.46.18,2.01.2.15,0,.4.02.27-.19ZM10.19,14c.08.13.41.06.54-.03.28-.18.92-.84,1.2-1.11.14-.13.64-.57.21-.55-.3.27-1.85,1.07-1.94,1.35-.02.07-.04.27,0,.33ZM7.25,20.68s-.13.01-.21.13c-.09.12-.07.2-.09.32-.02.01-.08-.03-.13.04-.25.37-.64,2.46-.71,3-.03.26-.08.52-.08.78,0,.75.53,1.16,1.14,1.45,1.57.76,3.64-.24,5.15-.82,3.3-1.26,6.48-2.59,10.08-2.76.34-.06.43-.88.55-.99.09-.09.11.03.14.08.18.25.21.78.56.82.25.02.39-.03.48-.27.24-.64.31-1.54.47-2.21.11.02.1.13.13.21.17.55.17,1.51.37,1.96.1.23.27.22.47.24.1,0,.2,0,.31,0,.53.04,1.06.07,1.59.06.01.24-.05.79.09.95.1.12.36.1.45-.04.12-.17.07-1.66.07-2,0-.08-.01-.18,0-.25,0-.06.05-.11.06-.25.07-1.48.09-3,.13-4.48,0-.3-.03-.51-.13-.8.42-.05,1.05-.44,1.34,0,.11.17.15.42.31.57.01.14.13.55.24.6.06.03,1-.07,1.23-.03.03,0,.44.17.49.19.62.31.98.9,1.1,1.59s.04,1.36.06,2.03c0,.08,0,.17,0,.25-.04.33-.01.61-.19.91-.1.16-.46.49-.63.49h-1.07l.24,4.01c-.25-.02-.31-.14-.49-.19-.02,0-.04,0-.06,0-1.49-.85-3.05-1.64-4.7-2.1-.03,0-.09,0-.12,0-.05-.01-.1-.04-.18-.06-.07-.02-.17.02-.24,0-1.36-.3-2.2-.34-3.63-.19-.17.02-.43.05-.58.13-.03,0-.18,0-.18,0l-.18.06s-.04,0-.06,0c-.59-.06-2.22.44-2.87.64-.87.26-1.73.57-2.58.9-2.28.91-5.3,2.85-7.77,1.89-1.63-.63-2.25-2.36-4.32-1.58-.18.07-1.44.75-1.2,1,.05.05,1.1-.36,1.38-.38,1.09-.07,1.83.6,2.6,1.27.56.68,1.3,1.28,2.14,1.53.25.08.42.09.67.13.08.01.36-.03.37.09,0,.02-.19.28-.12.41-.03.08-.11.37-.16.38-.43.03-.78,0-1.18-.13-.23-.07-.44-.22-.67-.25,0-.04-.04-.05-.06-.06-.01-.01-.05.01-.06,0-.04-.04.1-.1-.12-.13-.02,0-.04,0-.06,0l-1.22-1.37c-.05-.08-.13-.07-.18-.09-.19-.47-.78-.6-1.22-.48-.28.08-.79.52-.79.86.09.09.84-.65,1.34-.13.19.2.46.74.65,1.01.07.1.18.15.21.2.13.18.01.26.31.45-.03.16.12.31.24.38.02.02.05.04.06.06.18.27.29.38.55.57.04.03.08.04.12.06.21.13.37.24.61.32.38.12.58.14.98.13h1.28c0-.08,0-.17,0-.25.02-.18.04-.34.06-.51.01-.1-.01-.21,0-.32,0-.09.05-.2.06-.32.02-.15.04-.3.06-.45.25-.51.71-1.32,1.31-1.4,1.43-.18,2.07,1.15,2.26,2.41.01.1-.04.22-.03.33s.07.67.09.7c.07.13.16.12.28.13.9.11,2.32.12,3.24.06.06,0,.15.03.19-.04.07-.15.05-.31.05-.47,0-.06,0-.13,0-.19.01-.44,0-.89,0-1.34,0-.3,0-.59,0-.89,0-.26.05-1.28-.06-1.4-.13-.14-.18-.03-.31,0-.02,0-.04,0-.06,0l-.06.06c-.71.22-1.18.51-1.83.83-.16.08-1.13.57-1.19.56-.09-.01-.23-.46-.39-.49,0-.02,0-.04,0-.06s0-.04,0-.06c-.01-.07-.16-.13-.1-.25.09-.18,2.44-1.31,2.81-1.47,4.02-1.8,7.93-2.78,12.12-.89.96.43,2.28,1.4,3.2,1.66.02,0,.04,0,.06,0,.21.19.49.27.73.38,1.4.63,2.74.96,4.28,1.02s3.35.07,4.83-.38c.26-.08.38-.13.61-.25.08-.04.24-.06.31-.13.11-.11.05-.24.06-.38s0-.3,0-.45,0-.3,0-.45c0-.38-.04-.77-.06-1.14-.04-.83-.05-2.6-.31-3.31-.03-.28-.03-.59-.06-.86,0-.08-.06-.14-.06-.15,0-.04,0-.09,0-.13-.07-.59-.11-1.2-.24-1.78-.02-.08-.03-.19-.06-.25,0-.22-.04-.18.15-.19.91-.07.97-.08,1.12.81.09.57,0,1.1.32,1.6.03.04.01.12.09.2.05.05.12.04.16.06.36.21.62.2.73-.25.16-.65.03-1.22-.06-1.84,0-.04,0-.09,0-.13-.08-.44-.05-.62-.31-1.02-.38-.59-.91-.49-1.53-.51l-.03-.06-.03.06s-.08,0-.12,0c-.08,0-.16,0-.24,0-.02,0-.04,0-.06,0-.04,0-.08,0-.12,0,0,0-.01-.04-.03-.05l-.03.05s-.09.01-.12,0c-.02,0-.05,0-.06,0,0,0-.12-.18-.12-.19-.01-.03.01-.09,0-.13-.1-.28-.17-.57-.34-.82-.84-1.23-3.77-1.85-5.16-2.14-2.29-.47-5.52-1.05-7.76-.44-1.94.53-3.9,1.24-5.85,1.8-3.34.96-6.7,1.81-10.03,2.78-1.34.39-2.9.77-4.19,1.24-.14.05-.37.11-.48.2-.09.07-.09.17-.1.18ZM28.88,18.33c0,.15-.12.38-.06.57l1.71-.13c0,.1.17.57.18.8.04.52-.07,1.11.06,1.62.06.22.08.18.18.32.02.03,0,.1.1.18.24.2.94.32,1.15.07.03-.04.02-.1.03-.12.07-.11.1-.1.12-.28.05-.48.03-1.38,0-1.88,0-.11-.06-.12-.06-.13,0-.04,0-.09,0-.13-.02-.17-.02-.42-.06-.57-.28-1.03-1.31-1.07-2.17-1.02-.21.01-.93.08-1.09.14-.1.03-.15.25-.16.35-.01.13.06.2.06.21ZM4.6,22.6c-.26.08-.31.57-.03.7.66.32.74-.93.03-.7ZM3.23,24.68c.26.27.95-.03.62-.49-.39-.55-.96.14-.62.49ZM5.03,24.27c-.26-.23-.54.07-.34.39.26.42.72-.06.34-.39ZM21.79,26.34s-.08,0-.12,0c-.52,0-1.26.25-1.77.38-.07.02-.13.05-.18.06-.48.13-1.08.24-1.53.45-.03.01-.05.06-.06.06-.02,0-.05-.01-.06,0-.02.02-.04.04-.06.06-.11.18-.1.71,0,.89,0,.53,0,1.06,0,1.59-.1.04-.1.28,0,.32,0,.04,0,.08,0,.13,0,.78-.01,1.57,0,2.35,0,.15-.02.85,0,.89-.01.02-.06.05-.06.06-.52-.26-1.24-.27-1.77-.03-.12.05-.14.13-.18.16-.26.18-.42.29-.61.57-.22.32-.36.67-.31,1.08.01.1.09.18.12.25.51,1.21,2.45.97,3.12.03.07-.09.04-.19.06-.22.11-.19.25-.25.24-.57,0-.06-.01-.14,0-.19,0,0,.06-.02.06-.06.06-.6-.04-1.41-.06-2.03,0-.06,0-.13,0-.19.06-1.06-.08-2.22,0-3.28.02-.21.05-.29.12-.47l4.46-.83c0,.68,0,1.36,0,2.03,0,1.16,0,2.33,0,3.5-.02,0-.04,0-.06,0-.67-.34-1.69-.3-2.2.32-.02.02-.05.04-.06.06v.06c-.28,0-.59.73-.61.99-.01.2.04.23.06.35s.01.13.06.25c.1.26.08.19.24.38.73.82,2.49.52,2.93-.51.03-.01.05-.03.06-.06,0-.02,0-.04,0-.06.19-.14.23-.56.25-.79.14-1.85,0-4.12,0-6.01,0-.04,0-.08,0-.13,0-.21,0-.42,0-.64,0-.25.05-1.22-.06-1.34-.1-.11-.64-.07-.82-.06-.37.02-.83.09-1.19.19ZM24.66,27.81c-.01.76-.06,1.54-.06,2.29,0,.02,0,.04,0,.06,0,.04,0,.08,0,.13,0,.41.04.81.06,1.21.01.26-.04.66,0,.89,0,.02,0,.06.03.06l.03-.06c-.04-.31.03-.59.06-.89.07-.72.14-1.41.37-2.1,0-.02,0-.04,0-.06s0-.05,0-.06c.25-.66.6-1.12,1.28-1.21.08-.01.16-.05.24-.06.25.18.54.23.79.45.02.02.29.3.31.32.32.45.44,1.07.61,1.59-.01.62.2,1.21.12,1.84-.03.55,0,.49.43.51,3.43.16,7.3.08,10.75,0,1.06-.02,2.05.14,2.44-1.14.15-.51.13-.94.12-1.46,0-.19,0-.38,0-.57-.05-.05-.83.26-.96.3-2.03.53-4.69.52-6.75.13-.7-.13-1.57-.54-2.19-.62-1-.5-2-1.01-2.99-1.53-.71-.37-2.09-1.2-2.87-1.21-.04,0-.08,0-.12,0l-.89-.13c-.18.08-.58.03-.7.1-.16.1-.12,1.01-.12,1.24ZM2.31,28.94c.24.16.69-.2.39-.44-.33-.27-.6.31-.39.44ZM19.41,30.16c-.05.6-.13,1.48-.06,2.07,0,.06-.02.15.06.16.35-.05,3.07.09,3.12-.06.02-.07,0-.28,0-.38.03-.93-.02-1.87,0-2.8l-3.07.71-.1.09c0,.07.06.16.06.22ZM25.52,32.51c0,.6.16,1.18.49,1.65.02.04.01.11.09.19.83.83,1.44-.78,1.56-1.46.03-.19.05-.38.06-.57.02-.35.03-.76-.06-1.08-.02-.06.02-.15-.06-.19,0-.04,0-.09,0-.13-.06-.7-.56-2.02-1.4-1.43-.79.55-.68,2.15-.68,3.02ZM10.24,32.07c0,.08.07.31.12.38.04.44.22.89.49,1.21.44.52.86.23.98.32,0,0,0,.26.12.13s-.11-.12-.12-.13c0,0,0-.11,0-.13.34-.12.58-.69.67-1.02.03-.11.04-.26.06-.38.12-.84.05-1.97-.61-2.58-1.31-1.21-1.8,1.23-1.71,2.19ZM4.49,30.87c-.3-.2-.5.33-.3.47.36.26.45-.37.3-.47ZM5.52,31.76c-.31.09-.19.74.23.43.23-.17.04-.51-.23-.43ZM13.42,33.27c-.17.29-.44.56-.67.8.53.23,1.52-.58,1.59-1.11.01-.1,0-.22,0-.32-.18.03-.47-.04-.63,0-.08.02-.23.54-.29.64ZM38.47,34.36c.28-.25.58-.61.61-1.02-.26.02-.55-.04-.81.02-.22.04-.13.14-.23.27-.53.72-1.14.98-2.02.99.08.18.34.15.49.19.62.17,1.26.18,1.77-.32.06,0,.08-.03.12-.06.02-.02.04-.04.06-.06ZM29.43,33.53c-.23.04-.67-.07-.86.03-.07.03-.33.66-.44.82-.12.18-.57.49-.15.48.77,0,1.32-.58,1.44-1.33Z" style="fill: #0f0f10;"/>
    <path d="M41.16,17.89c-.21,0-.26-.45-.49-.25,0-.04,0-.09,0-.13.01-.44.26-.68-.43-.51.11-.41-.12-.32-.33-.38-.09-.03-.15-.1-.21-.11-.11-.02-.32.07-.43-.03-.16-.15.09-.6-.5-.49-.02.1.03.47,0,.51,0,.01-.11-.02-.12,0s.01.11,0,.13c0,0-.07-.03-.11.01-.02.02,0,.1-.04.11-.03,0-.11-.06-.16-.06v-.13c.36-.07.08-.48-.14-.59-.46-.23-1.91-.49-2.48-.6-.33-.06-2.6-.43-2.7-.34.18.59.26.63.79.7-.02.31-.54.19-.73.19-.04.2.13.12.24.13v.51c.2.02.6-.09.7.13.06.12,0,.29.12.38l.27-.13c-.03.16.12.51.27.51.02,0,.44-.13.48-.14.09-.04.4-.53.58-.07.04.1.29.78.32.81.06.05.21.06.31.13s.14.25.22.28c.25.11.08-.36.3-.32.16.03.03.45.15.55.1.07.25-.06.39-.03.15.04.22.26.31.35.05.06.17.05.21.1.18.22.03.66.12.86.11.24.4.1.51.36.04.1.12.87.12,1.02,0,.17-.06.85-.09.99-.07.26-.41.46-.47.75-.64.14-1.2.11-1.7-.34-.21-.19-.3-.44-.45-.58-.16-.16-.39-.31-.56-.46-.11-.11-.42-.52-.46-.55-.11-.07-.23.04-.33.04-.35-.03-.24-.75-.4-.98-.13-.18-.56-.06-.42-.61l-.49.06c0-.17.01-.35,0-.53-.16-.19-.2-.33-.49-.36-.12-.69-.48-1.28-1.1-1.59-.05-.2.17-.08.19-.16.1-.45-.2-1.18.48-1.05.04-.26-.33-.36-.37-.42-.05-.07-.09-.41-.05-.46.07-.09.85-.24,1-.25.1,0,.42.14.15-.17-.17-.19-.27.02-.39.02-.13,0-.16-.17-.2-.18-.65-.14-1.32,0-1.94,0-.87,0-1.76-.13-2.58.11-.19.05-.49-.06-.5.27l.79.06-.12.51c.18.04.35-.05.52-.06.12,0,.25-.06.21.13-.27.01-.61.12-.92.06.09.17-.05.26-.07.47-.05.71.12,1.41.13,2.1,0,.29-.07.65-.06.99l-.3-.06c-.11.94-.12,1.91-.22,2.86-.18.23-.38.05-.55.06-.4.02-.82.12-1.23.07-.16-.02-.07-.1-.09-.13l1.77-.06-.06-5.12s-.01-.1-.06-.13c-.17-.12-1.43.19-1.72.26-1.27.29-2.53.68-3.79,1.02l-.61,4.42c.3-.11.79-.04,1.06-.2s.52-.99.8-1.01c.33-.03.59.9.76.77.2-.84.4-1.7.66-2.53.03-.1.09-.35.13-.42.1-.15.34-.1.42.07.09.19.36,1.6.38,1.86-.25,0-.19.31-.18.48,0,.1-.06.25.09.22.17-.12.03-.26.03-.41,0-.05.06-.09.06-.1l.18.83c-.13.06-.33-.3-.43-.19-.03.03.04.23.04.3,0,.08-.05.18-.04.23.01.09.44.28.43.42-.2-.02-.37-.01-.47-.24-.2-.46-.21-1.42-.37-1.96-.03-.08-.02-.19-.13-.21-.16.68-.23,1.58-.47,2.21-.09.24-.23.29-.48.27-.35-.03-.38-.57-.56-.82-.03-.05-.05-.17-.14-.08-.12.11-.21.93-.55.99-3.6.17-6.78,1.5-10.08,2.76.02-.3.3-.14.36-.2.02-.02-.01-.13.02-.16.04-.05.27-.02.23-.18-.04-.17-.59-.14-.73-.29.4-.13,2.71-.88,2.84-1.08l.52-4.26-4.2,1.03c-.13.62-.21,1.24-.32,1.87-.02.11.03.24-.12.28,0-.08-.14-.21,0-.38-.31.07-.15-.28-.18-.51-.3-.07.06.53-.24.51.06-.51.11-1.02.18-1.53l-3.24.89c-.05-.19-.1-.63.03-.76.09-.09.26,0,.21-.19-.07,0-.41.05-.43.06-.07.07.04.26-.31.45-.01.06.02.14,0,.21s-.18,0-.12.17c.06.01.23-.02.24,0,.08.08-.21.79.18.7-.07.27-.12.57-.24.83,0-.01-.07-.06-.06-.15,0-.13.1-.2.12-.26.01-.04-.11-.02-.12-.07-.03-.12-.04-.43,0-.56l-.18.03c-.04-.19.11-.06.13-.22.02-.13.03-.27-.13-.23l-.73,3.37c0-.26.05-.52.08-.78.07-.54.46-2.63.71-3,.05-.07.1-.02.13-.04.03-.12,0-.2.09-.32.08-.11.19-.1.21-.13.01-.01,0-.11.1-.18.12-.09.34-.15.48-.2,1.29-.47,2.85-.85,4.19-1.24,3.33-.98,6.7-1.83,10.03-2.78,1.95-.56,3.91-1.27,5.85-1.8,2.24-.61,5.47-.02,7.76.44,1.38.28,4.32.91,5.16,2.14.17.25.24.54.34.82ZM32.85,15.53s0-.26-.12-.13.11.12.12.13,0,.26.12.13-.11-.12-.12-.13ZM32.91,15.98h-.18c.03.38-.08.49-.43.38,0,.28.25.26.38.32.06.03.04.12.08.12.26,0,.12-.65.15-.83ZM38.56,16.04v.06s.04-.04,0-.06ZM21.12,18.08l-4.76,1.11-.73,4.36c1.59-.6,3.28-.91,4.95-1.17l.55-4.3ZM35.35,18.33c.04.06.35.09.3-.09-.04-.2-.4-.05-.3.09Z" style="fill: #eadfd1;"/>
    <path d="M21.24,24.05c.68.11,2.16.21,2.84.13.27-.03.34-.16.67-.13s.23.15.33.22c.14.09.17-.03.31-.1-.09.12.26.2.33.19.07,0,.02-.12.04-.13.01-.01.1-.02.12-.06.04,0,.09,0,.12,0,.05.11.06.23.15.32.02.02.53.3.56.3.15.03.34-.28.73.03.04.03.06.14.14.2.3.22.92.2,1.21.34.12.06.14.2.2.24.09.06.22,0,.29.05.04.02.13.27.26.33.29.13.85.2,1.16.29.02,0,.04,0,.06,0,.02.06.14.32.16.32.11.03.39.04.33-.13.04,0,.08,0,.12,0-.04.41-.19.19-.46.26-.19.05-.41.19-.64.19.23.66,1.19-.04,1.1.83-.92-.27-2.24-1.23-3.2-1.66-4.19-1.89-8.1-.91-12.12.89-.36.16-2.71,1.29-2.81,1.47-.06.13.08.18.1.25l-.06.03.06.03s0,.04,0,.06c.02.08.03.33.08.37.04.04.14,0,.17.01.01,0-.07.14-.06.22,0,.11.1.19.11.27.03.2-.09.51.09.76.37.2.68.41,1.1.54.37.12.93.23,1.3.3.13.02.48.03.6,0,.17-.05.24-.54.41-.37.04.04-.08.49.06.57h.06c0,.06,0,.13,0,.19l-.12.32c0-.08.01-.2-.03-.26-.07-.11-1.41-.26-1.66-.31-.41-.09-.84-.18-1.25-.29-.09-.03-.25-.18-.33-.16-.1.03-.02.3-.34.13l-.12.19c-.01-.11.04-.23.03-.33-.19-1.26-.83-2.59-2.26-2.41-.6.08-1.06.89-1.31,1.4.04-.32-.09-.76.31-.73-.14-.06-.16-.21-.29-.27-.61-.33-1.15-.01-1.79-.61-.19-.18-.2-.43-.45-.55-.27-.12-.5,0-.77-.1-.16-.05-.41-.45-.46-.46-.12-.03-.52.09-.7-.01-.06.37.12.41.31.64-.76-.67-1.51-1.34-2.6-1.27-.27.02-1.33.43-1.38.38-.23-.25,1.03-.94,1.2-1,2.07-.79,2.69.95,4.32,1.58,2.47.95,5.49-.98,7.77-1.89.85-.34,1.71-.65,2.58-.9.09.11.19.04.29.02.44-.08.66-.13,1.04-.27.48-.17,1.08-.11,1.54-.39.02,0,.04,0,.06,0,.02,0,.05.09.15.07.06-.01.03-.13.04-.13,0,0,.15,0,.18,0Z" style="fill: #e7dccd;"/>
    <path d="M15.88,10.05l10.56,4.05.12.09c-.91.16-1.79.54-2.7.62l-7.88-4.2-.29-.05c-.03.15.04.2.12.29.37.41,1.11.91,1.56,1.3,1.3,1.15,2.58,2.32,3.88,3.46-.28.08-1.68.55-1.83.45-.11-.07-.48-.67-.61-.83-1.08-1.33-2.19-2.64-3.26-3.98l-.28-.12,2.5,5.38c.02.08-.04.1-.1.14-.09.05-1.13.37-1.18.33-.46-1.92-1.2-3.77-1.71-5.68-.76-.16-1.31-.61-1.12-1.49.31-1.41,2.19-1.19,2.23.23Z" style="fill: #e7dccd;"/>
    <path d="M38.77,16.49s-.02-.41,0-.51c.59-.11.35.35.5.49.11.1.32,0,.43.03.05.01.12.08.21.11.21.06.44-.03.33.38.69-.17.44.07.43.51-.14,0-.28-.34-.43-.19-.03.03.04.58.07.66.05.13.23.06.16.25-.1.3-.33.15-.45.23-.04.02-.31.39-.32.43-.07.2.1.14.18.24.05.06.01.72-.02.82-.03.12-.2.16-.23.33-.03.16,0,.71,0,.95-.01.4.03.8-.01,1.19-.02.17-.32,1.32-.38,1.45s-.2.09-.26.14c-.07.06-.07.27-.2.33-.14.07-.86.04-1.05.02-.55-.08-1.72-.75-2.18-1.1-.22-.16-.41-.49-.62-.63-.17-.11-.36-.12-.52-.22-.17-.12-.24-.36-.44-.5-.31-.21-.31-.08-.63-.01l-.06-.57h-.18c-.08.17.03.74-.03.83-.05.07-.26.07-.37.13-.14.09-.16.28-.41.34-.12.03-.16-.03-.18-.03-.1.01-.19.05-.31.06-.14.01-.29,0-.43,0,0,.17,0,.34,0,.51-.02.86-.01,1.68,0,2.54,0,.24.02.53,0,.76-.04,0-.08,0-.12,0,.05.17-.22.16-.33.13-.02,0-.14-.27-.16-.32.17.05.24.17.49.19l-.24-4.01h1.07c.17,0,.54-.33.63-.49.18-.31.16-.58.19-.91.03,0,.11.01.12,0,.02-.03,0-.58,0-.7.28-.07.17.2.18.45,0,.15-.05.38.12.45,0-.15,0-.3,0-.45,0-.04,0-.08,0-.13.55-.08.43.17.65.44.11.15.57.7.7.74.14.05.26,0,.4.09.13.08.31.43.49.58.35.29.56.5.88.8.4.37,1.04.49,1.56.48.15,0,.59-.08.67-.2.06-.08.28-.86.31-1.01.04-.21.14-.79.15-.99,0-.1-.12-1.32-.14-1.38-.04-.13-.21-.19-.26-.3-.1-.22-.37-.87-.43-1.08-.05-.17,0-.69-.1-.76-.07-.05-.32.01-.4-.09-.09-.12-.01-.49-.2-.59-.32-.16-.9.25-.67-.48-.12-.13-1.05.2-.49-.38.11.07.99-.05,1.19-.05.17,0,.37.06.58.05v.19c.06.02.11-.06.12-.06.05,0,.12.06.16.06.04,0,.02-.09.04-.11.04-.04.1,0,.11-.01.05.12.13-.03.12-.13ZM38.47,17.06c.1,0,.53.05.49-.16-.05-.23-.63-.2-.49.16ZM38.22,16.93c-.07-.07-.19.06-.12.13s.19-.06.12-.13Z" style="fill: #e5d8c8;"/>
    <path d="M41.16,19.29l.03.32.18-.25s.08.1.09.13c.03.07.04.18.06.25-.16,0-.22.31-.31.41-.04.04-.16.04-.21.1-.57.68-.33,1.82-.47,2.69-.03.18-.14.37-.17.58-.08.54-.04,2.01-.71,2.12-.25.04-.84.07-1.09.07-1.42-.03-2.74-.82-4.16-.82-.22,0-.36.15-.55.18-.25.04-.69.02-.9.08-.26.08-.15.62-.17.84-.01.11-.13.23-.11.31,0,.03.26.41.28.42.23.13.61-.01.87,0,.04.31-.52-.09-.43.32-.36-.06-.7-.21-1.04-.32-.08-.02-.17.04-.28-.06-.07-.06-.1-.25-.16-.34s-.18-.12-.23-.21c-.1-.16,0-.46-.31-.41-.01-.86-.02-1.68,0-2.54.26-.04.23.52.4.26.09-.15-.08-.22-.08-.34s.14-.28.11-.42c.11-.01.21-.05.31-.06-.04.35.59.71.85.8.22.07.53.05.74.12.12.05.19.18.29.21.4.13.93-.06,1.24.3.07.08.04.2.16.28.16.1.55.16.75.23.6.24,1.22.51,1.87.6.17.02.85.07.99.03.31-.08.73-.42.84-.72.39-1.08.42-2.64.57-3.79.04-.32.03-1.06.33-1.28.11-.08.38-.06.41-.08Z" style="fill: #decfba;"/>
    <path d="M41.52,19.73c.13.58.17,1.19.24,1.78-.19.04-.11-.1-.12-.22s.02-.25-.01-.37-.22-.39-.36-.27c-.06.05-.33,1.23-.36,1.41-.17,1.04-.13,2.25-.34,3.27-.09.42-.28,1.03-.79,1.02-1-.03-2.02-.26-3-.32-.35-.02-1.22-.04-1.51.12-.06.03-.04.16-.14.25-.27.23-.77,0-.45.64-.26-.09-.74-.14-.37.19-.21-.03-.39-.09-.55-.13l.06-.06c-.09-.04-.25,0-.31,0-.04,0-.08,0-.12,0-.09-.4.47,0,.43-.32-.26-.01-.64.13-.87,0-.02-.01-.28-.4-.28-.42-.02-.08.1-.2.11-.31.02-.23-.09-.77.17-.84.21-.06.65-.04.9-.08.19-.03.33-.18.55-.18,1.42,0,2.74.79,4.16.82.26,0,.85-.03,1.09-.07.67-.11.63-1.58.71-2.12.03-.22.14-.4.17-.58.13-.87-.11-2.01.47-2.69.05-.06.17-.06.21-.1.09-.1.15-.41.31-.41Z" style="fill: #dacbb5;"/>
    <path d="M34.31,27.23c-.37-.33.11-.28.37-.19-.31-.63.19-.41.45-.64.1-.09.08-.22.14-.25.29-.16,1.16-.15,1.51-.12.97.06,2,.29,3,.32.51.01.7-.6.79-1.02.22-1.02.17-2.22.34-3.27.03-.18.3-1.37.36-1.41.14-.11.32.15.36.27s0,.25.01.37-.07.26.12.22c0,.04,0,.09,0,.13-.07.2-.11.53-.12.76-.12,0-.18.06-.23.17-.16.32-.24,1.19-.26,1.57-.04.75.03,1.53,0,2.28-.4.2-.29.16-.19.55l-.24.25c-.32.04-.55,0-.82,0h-1.19s.04.18-.03.19c-.13.04-.55-.01-.73,0-.12,0-.25-.07-.21.13-.18,0-.37,0-.55,0-.02-.08.04-.31-.04-.32-.38-.06-1.1,0-1.53,0s-.79.04-1.19,0c-.04,0-.08,0-.12,0ZM38.53,27.23c-.14.04-.47-.08-.55.06.14-.04.46.08.55-.06Z" style="fill: #d5c5ae;"/>
    <path d="M6.03,24.94l.73-3.37c.16-.05.14.1.13.23-.02.15-.17.03-.13.22l.18-.03c-.04.13-.03.45,0,.56.01.05.13.04.12.07-.02.07-.12.13-.12.26,0,.09.06.14.06.15,0,.04,0,.09,0,.13-.24-.02-.06.09-.06.13.06.71-.41,1.2-.06,2.1.04.09-.02.26.17.31.98-.01,2.06.07,3-.26.03-.03,0-.08.01-.12.18-1,.3-2.1.43-3.12.3.02-.05-.58.24-.51.04.23-.13.58.18.51-.14.18,0,.3,0,.38,0,.02,0,.04,0,.06-.1.06-.1.32,0,.38-.05.69-.16,1.47-.24,2.16,0,0-.09.05-.06.13.3.08.62-.13.89-.13.14,0,.82.14.89.06.07-.36-.26-.1-.49-.13l.06-.25c.06-.02.15-.1.24-.13.14.15.69.11.73.29.03.15-.19.13-.23.18-.03.04,0,.15-.02.16-.06.06-.34-.1-.36.2-1.51.58-3.58,1.57-5.15.82-.61-.29-1.14-.71-1.14-1.45Z" style="fill: #e5d8c8;"/>
    <path d="M28.39,30.35c.14-.24-.06-.63.33-.63.62,0,.83.53,1.31.74.28.12.59.08.84.14.09.02-.05.26.16.19.02-.17-.09-.64.18-.64,0,.11,0,.21,0,.32-.01.23.01.32.12.51.17.29.46.44.78.49.46.08,1.73.1,2.13-.11.09-.04.3-.21.32-.3.07-.29-.26-.31-.42-.46,0,0,0-.09-.03-.13-.08-.08-.23,0-.22-.12.56.1,1.12-.11,1.69-.12.42,0,.98.11,1.4.12.92.02,1.84-.11,2.75-.12.43,0,.92.14,1.37.05.06-.3-.48.05-.43-.25.29.13,1.29-.47,1.44-.26.05.08,0,.28.15.32.01.53.03.95-.12,1.46-.08-.04-.07-.18-.06-.25.01-.11.12-.51.06-.57-.02-.02-.39.05-.49-.06-.02-.02-.01-.16-.09-.19-.21.18-1.6.36-1.17.87.22.27.67.29.97.19.11-.03.16-.14.23-.17.26-.04.06.19.06.25-.13.02-.34,0-.31.19-.02,0-.04,0-.06,0-.15-.03-.41-.24-.49,0-.06,0-.19-.01-.24,0-.07-.09-.2-.05-.3-.1-.72-.32-2.37-.39-3.21-.35-.54.03-.93.17-1.51.05-.24-.05-.45-.18-.69-.24l-.09.26s-.29,0-.31,0h-.24c-.03.08.06.12.06.13.01.05,0,.13,0,.19-.47,0-.94.09-1.41.06-.11,0-.41-.21-.37.06-.08,0-.16,0-.24,0,.04-.27-.29-.05-.37-.09-.05-.03-.09-.21-.15-.22-.07-.02-.2.18-.27.13,0,0-.01-.11-.07-.15-.1-.08-.24-.13-.34-.21-.67.14-1.3.01-1.95-.08-.16-.02-.27.13-.48-.07-.07.2-.02.43-.03.64,0,.14-.06.31-.06.38.07-.63-.14-1.22-.12-1.84Z" style="fill: #d5c5ae;"/>
    <path d="M26.37,26.6s.08,0,.12,0c.2.56.31.32.7.32.32,0,.42.21.06.24-.04,0,0-.19-.15-.12v.19s.82-.11,1.05,0c.13.07.24.44.27.45.09.02.24-.02.35,0,.2.04.38.13.59.12,1,.51,1.99,1.02,2.99,1.53-.02,0-.34,0-.39,0-.07,0-.45.1-.47.12-.11.15.37.19.31.38-.14-.05-.39-.15-.49-.06-.08.07,0,.03,0,.06,0,.04,0,.08,0,.13l-.12.51c0-.11,0-.21,0-.32,0-.17.05-.38-.09-.51-.07.15.05.45-.21.44.07-.45-.41-.28-.72-.43-.23-.12-.65-.49-.91-.64-.25-.14-1.03-.53-1.28-.52-.14,0-.16.16-.21.25-.01-.02-.28-.3-.31-.32.42.04.28-.56.04-.66-.14-.06-.66.19-.9.09l.11.07-.05.06c-.08.02-.16.05-.24.06-.09-.1-.25,0-.12-.19-.49.12-.82-.08-1.28-.13-.02.02.05.75-.12.51,0-.25,0-.51,0-.76.25.04.06-.5.12-.57.09.05.43.06.48,0,.04-.05-.04-.19.05-.25.12-.07.5.01.67,0,.08,0,.14-.07.15-.07Z" style="fill: #e7dccd;"/>
    <path d="M19.41,30.16c.18-.04.12.1.12.22,0,.25,0,.51,0,.77l.12.67v-1.91c.63-.26,1.44-.02,2.04-.12.08-.01-.02-.56.4-.39v.89c.14,0,.11.02.12-.09.03-.22-.01-.4.05-.65.03-.11-.04-.18.13-.15.02.77-.03,1.55,0,2.32,0,.12-.06.26.12.22,0,.1.02.31,0,.38l-3.12.06c-.08,0-.06-.09-.06-.16-.07-.59,0-1.47.06-2.07Z" style="fill: #d5c5ae;"/>
    <path d="M28.94,15.53c.03-.18-.1-.14-.21-.13-.17.01-.34.1-.52.06l.12-.51-.79-.06c.02-.33.32-.21.5-.27.82-.24,1.71-.11,2.58-.11.62,0,1.29-.14,1.94,0,.04,0,.07.18.2.18.11,0,.22-.21.39-.02.27.31-.05.17-.15.17-.15,0-.93.16-1,.25-.04.05,0,.39.05.46.04.06.41.17.37.42-.69-.14-.38.6-.48,1.05-.02.08-.24-.04-.19.16-.05-.03-.46-.18-.49-.19-.04-.22.21-.19.12-.44-.07-.09-1.25.05-1.46,0,.05-.11-.06-.28-.06-.32s0-.09,0-.13c0-.05.19-.22-.06-.19,0-.02,0-.05,0-.06,0-.02.3-.28-.06-.25-.05,0-.07.01-.06.06-.02-.01-.1.01-.12,0-.05-.03-.1-.11-.18-.13l-.03-.19c-.13.01-.31.03-.27.19-.04,0-.08,0-.12,0Z" style="fill: #e7dccd;"/>
    <path d="M17.21,27.87c.04.45-.08.97.06,1.4,0,.3,0,.59,0,.89-.14.41-.02.91-.06,1.34-.14-.09-.02-.53-.06-.57-.17-.17-.24.32-.41.37-.11.04-.47.03-.6,0-.38-.06-.93-.18-1.3-.3-.41-.13-.72-.35-1.1-.54-.17-.25-.06-.57-.09-.76-.01-.08-.1-.16-.11-.27,0-.08.07-.21.06-.22-.03-.01-.13.02-.17-.01-.05-.04-.05-.29-.08-.37.16.04.3.48.39.49.06.01,1.03-.48,1.19-.56.04.43.13.27.4.38.42.18.68.22,1.06.36.11.04.68.6.74.54-.08-.56.1-1.42,0-1.94-.03-.17-.15-.13-.25-.22.12-.03.18-.14.31,0Z" style="fill: #efe8df;"/>
    <path d="M19.9,26.73c.15.11.9-.08.98,0,.02.02-.02.23,0,.26,0,0,.18,0,.18,0,.06-.06-.18-.36.33-.25.41.09.97.22,1.39.33.26.06.47.34.78.18-.01.18.02.37,0,.55,0,.08-.06.14-.06.15-.14,0-.22,0-.24.16-.07.37.01,1.07,0,1.49,0,.09.02.18-.06.25,0-.68,0-1.36,0-2.03l-4.46.83c.03-.08.07-.16.12-.22l-.3-.07c-.09.04-.17.37-.18.48-.1-.29-.08-.76-.06-1.08.03-.49.13-.24.45-.33.02,0,.26-.16.29-.18.05-.01.14.02.18,0,.05-.02.05-.01.06-.06,0-.03,0-.09,0-.13.17-.05.44-.03.43-.25.06-.02.12-.05.18-.06ZM19.71,27.11s-.32-.04-.37.03c.06.15.5.13.37-.03Z" style="fill: #e5d8c8;"/>
    <path d="M28.94,32.7c.05-.28-.32,0-.31-.22,0-.26.12-.35.35-.4s.84-.08,1.08-.08c.46,0,1.14.15,1.59.13s.88-.17,1.46-.13c1.34.09,2.74.04,4.09.13.12,0,.31.04.43.06.11.02.1-.03.09.13l-.61.06c.94-.02,1.87.02,2.81.06l-.24.25c-3.45.08-7.32.16-10.75,0ZM36.7,32.32c-.09-.05-.16.04-.12.06.09.05.16-.04.12-.06Z" style="fill: #b29f86;"/>
    <path d="M32.36,26.73c-.01.44-.08.57.31.79,1.82,1.04,5.95,1.12,7.93.61-.05.12-.1.15-.22.19-.2.06-.97.2-1.16.2h-3.51l.09.13h3.21v.19l-3.12.06c-.06.31.58-.06.55.25-1.53-.06-2.88-.39-4.28-1.02-.06-.43-.38-.29-.73-.38-.02,0-.04,0-.06,0,.09-.87-.87-.16-1.1-.83.23,0,.45-.14.64-.19.27-.07.42.15.46-.26.02-.23,0-.52,0-.76.31-.05.21.25.31.41.05.08.17.12.23.21s.1.28.16.34c.11.11.2.04.28.06Z" style="fill: #e2d5c2;"/>
    <path d="M42.07,31.3c0,.08-.02.21.06.25-.39,1.28-1.38,1.12-2.44,1.14l.24-.25c-.94-.05-1.87-.09-2.81-.06l.61-.06c.01-.16.01-.11-.09-.13-.13-.02-.32-.05-.43-.06-1.35-.09-2.75-.05-4.09-.13-.58-.04-1,.11-1.46.13s-1.13-.14-1.59-.13c-.24,0-.87.04-1.08.08s-.34.14-.35.4c0,.23.35-.05.31.22-.42-.02-.45.04-.43-.51,0-.07.05-.24.06-.38.08.02.33.1.37.06.02-.02-.04-.18.03-.19.29-.06,1.25-.02,1.59,0,.6.04,1.03.2,1.68.19.08,0,.16,0,.24,0,.12,0,.3.04.37-.06.47.03.94-.05,1.41-.06s.84.06,1.25.07c.88,0,1.83-.06,2.69,0,.94.06,1.77.23,2.75.19.11,0,.24.06.21-.13.03,0,.08-.05.12-.06.02,0,.04,0,.06,0,.06.01.35.08.37.06.02-.02-.06-.2-.06-.25,0-.07.2-.29-.06-.25.02,0,.04-.06.06-.06.12-.03.3.02.43,0Z" style="fill: #bfad96;"/>
    <path d="M23.62,35.12s0-.04,0-.06c.1-.77-.35-.16-.56-.04-.37.22-1,.5-1.42.35-.07-.02-.06-.12-.1-.16-.12-.08-.72-.02-.87.03-.05.02-.13.39-.2-.13l-.09.25c-.05-.13-.04-.13-.06-.25l.06-.38.15.19c.07-.15.27-.29.43-.31.54-.09,1.93.28,2.25-.33.02-.04.2-.52.21-.55.03-.17-.1-.32-.23-.4,0-1.16,0-2.33,0-3.5.08-.07.06-.16.06-.25.16-.02.07.12.24.13,0,.27-.08.39,0,.68.03.11-.04.18.13.15.02-.19-.03-.42,0-.6.06-.32.16-.33.18-.86,0-.24-.06-.57.06-.76,0,1.89.14,4.16,0,6.01-.02.23-.06.65-.25.79Z" style="fill: #d5c5ae;"/>
    <path d="M41.64,22.4c0,.08,0,.17,0,.25,0,.25,0,.51,0,.76.07.1.11,0,.12-.09.02-.18,0-.41,0-.61,0-.08,0-.17,0-.25h.06c-.02.09.04.14.06.19.26.7.27,2.48.31,3.31-.1.07-.06.24-.06.35,0,.49-.01.98,0,1.47,0,.12-.06.26.12.22,0,.15.05.27-.06.38l-.06-.25c.07.31-.27.23-.4.06-.17-.23-.01-.48-.15-.7.01-.09,0-.19,0-.29,0-.03.03-.04.06-.03,0,0,.05.12.06.03.03-.08-.03-.07-.06-.09-.15-.1-.41.03-.61.06-.11.02-.21.05-.31.06l.24-.25c-.1-.39-.22-.35.19-.55.03-.75-.04-1.53,0-2.28.02-.38.1-1.26.26-1.57.05-.11.11-.17.23-.17Z" style="fill: #cebca5;"/>
    <path d="M6.03,27.87c-.18-.22-.37-.27-.31-.64.18.1.57-.02.7.01.05.01.3.41.46.46.27.09.5-.02.77.1.26.11.26.36.45.55.64.6,1.18.29,1.79.61.13.07.14.22.29.27-.39-.03-.27.41-.31.73-.02.15-.04.29-.06.45-.05-.14-.12-.29-.16-.43-.02-.06.05-.14.03-.2,0-.01-.19-.2-.2-.2-.11-.03-.11.12-.17.17-.14.12-.09-.06-.22.27-.07-.13.12-.39.12-.41,0-.12-.29-.08-.37-.09l.18-.19c-.29.16-.59-.05-.85.06-.84-.25-1.58-.85-2.14-1.53Z" style="fill: #e2d5c2;"/>
    <path d="M40.67,17.63c.23-.2.27.26.49.25.01.03-.01.1,0,.13,0,.09.03.17.12.19.01,0,.04,0,.06,0,0,.11.21.07.18,0,.04,0,.08,0,.12,0l.03.06.03-.06c.08,0,.16,0,.24,0,.01.14.03.18-.12.22-.18.05-.54-.06-.49.16.2,0,.38.05.58.07.47.03,1.07-.1,1.47-.05.11.01.18.06.27.11.25.4.23.58.31,1.02l-.24-.13c.07.32-.2.14-.25.19-.02.02.01.36,0,.47-.04.26-.17.74-.31.95-.11.18-.26.05-.11.48-.32-.5-.23-1.03-.32-1.6-.14-.9-.2-.89-1.12-.81-.19.02-.16-.03-.15.19-.01-.02-.08-.13-.09-.13l-.18.25-.03-.32s0-.1.07-.15c.15-.12.28-.04.24-.42-.23.05-.83-.23-.8-.47.01-.11.14-.18.13-.32,0-.08-.1-.17-.12-.29Z" style="fill: #e5d8c8;"/>
    <path d="M28.02,19.16c.01.83.05,1.67.06,2.48,0,.34.05,1.82-.07,2-.09.13-.36.16-.45.04-.14-.17-.08-.72-.09-.95,0-.04,0-.08,0-.13-.47,0-.95,0-1.42-.02-.1,0-.2-.14-.17.08-.1,0-.21,0-.31,0,0-.14-.42-.33-.43-.42,0-.05.04-.15.04-.23,0-.07-.07-.26-.04-.3.1-.11.29.25.43.19.01.03.05.04.06.06.02.03-.07.11.09.13.41.05.83-.05,1.23-.07.17,0,.37.16.55-.06.09-.95.11-1.92.22-2.86l.3.06Z" style="fill: #e5d8c8;"/>
    <path d="M32.36,29.33c.62.08,1.49.48,2.19.62,2.06.39,4.71.41,6.75-.13.14-.04.92-.35.96-.3,0,.19,0,.38,0,.57-.15-.04-.1-.24-.15-.32-.14-.22-1.14.38-1.44.26-.06.3.48-.05.43.25-.45.09-.94-.05-1.37-.05-.92,0-1.83.14-2.75.12-.42-.01-.98-.13-1.4-.12-.56.01-1.13.22-1.69.12,0,.12.14.04.22.12.04.04.02.12.03.13-.64-.09-1.25-.31-1.85-.52-.17-.06-.35-.19-.47-.24.06-.19-.42-.23-.31-.38.01-.02.4-.12.47-.12.04,0,.37,0,.39,0Z" style="fill: #e2d5c2;"/>
    <path d="M12.56,32.45c-.14-.11,0-.39-.09-.51-.04-.06-.17-.02-.22-.1-.11-.19.04-.82-.12-1.1-.39.06-.08.49-.07.66,0,.24-.14.6-.11.86-.03.02-.04.03-.06.06h-.06c.12-.34.12-1.66-.34-1.72-.56-.07-.59,1.34-.4,1.72,0,0-.09.03-.12-.04-.12-.33-.16-.82-.28-1.17l-.27-.06c-.07.27-.05.52-.06.8,0,.12.06.25-.12.22-.09-.96.4-3.41,1.71-2.19.66.61.73,1.74.61,2.58Z" style="fill: #eadfd1;"/>
    <path d="M27.78,28.76c.05-.1.07-.25.21-.25.24,0,1.03.38,1.28.52.27.15.69.52.91.64.31.16.79-.02.72.43.27,0,.14-.29.21-.44.14.12.09.34.09.51-.27,0-.16.47-.18.64-.2.07-.07-.17-.16-.19-.24-.06-.55-.02-.84-.14-.48-.21-.69-.74-1.31-.74-.39,0-.19.4-.33.63-.17-.52-.29-1.14-.61-1.59Z" style="fill: #decfba;"/>
    <path d="M32.24,18.65s-.08.05-.12.06c0-.2-.1-.23-.12,0,0,.06,0,.13,0,.19-.14.07-.17.21-.19.35-.02.23.05.7.06.98,0,.04,0,.08,0,.13-.14-.02-.19.08-.25-.09-.07-.2-.03-.43-.07-.62-.16-.76-.93-1.65-1.76-1.32-.08,0-.16,0-.24,0,0-.28-.3-.17-.49-.16-.17,0-.14-.11-.12.16h-.06s-.07-.08-.06-.21c0-.1.07-.32.16-.35.16-.05.88-.12,1.09-.14.86-.05,1.89-.01,2.17,1.02Z" style="fill: #efe8df;"/>
    <path d="M41.58,27.49c.14.22-.02.47.15.7.12.16.46.25.4-.06l.06.25c-.07.07-.23.09-.31.13-.08-.08-.16-.12-.27-.13-.11-.01-.66-.06-.72-.05-.08.01-.75.47-.66.56.25-.04.5-.09.75-.15.09-.02.23-.11.29.02-1.47.45-3.29.44-4.83.38.03-.32-.61.06-.55-.25l3.12-.06v-.19s-3.21,0-3.21,0l-.09-.13h3.51c.19,0,.95-.14,1.16-.2.12-.03.17-.07.22-.19.21-.05.9-.16.97-.36.03-.09,0-.19,0-.27ZM39.17,28.63v.06s.04-.04,0-.06ZM39.57,28.63h-.24s0,.13,0,.13c.03.03.32-.09.24-.13Z" style="fill: #d5c5ae;"/>
    <path d="M16.9,27.87c.1.09.21.06.25.22.1.52-.08,1.38,0,1.94-.05.06-.62-.5-.74-.54-.38-.13-.64-.18-1.06-.36-.27-.11-.36.05-.4-.38.65-.32,1.12-.61,1.83-.83.02,0,.04-.06.06-.06.02,0,.04,0,.06,0Z" style="fill: #eadfd1;"/>
    <path d="M26.92,32.7s.03.05.06.06c.09-.31-.03-.58.39-.44.09.03.07.22.22.18,0,.12-.04.31.06.38-.12.69-.73,2.29-1.56,1.46-.08-.08-.06-.16-.09-.19,0-.35-.04-.7,0-1.04.03-.22.01-.36.24-.42h.06c.02.07.19.39.27.39.32,0,.23-.4.34-.39Z" style="fill: #c7b69d;"/>
    <path d="M23.81,26.22c.04.43-.08.93.06,1.34,0,.21,0,.42,0,.64l-.12-.19c-.12-.02-.03.15-.06.19-.06.08-.17-.09-.18-.13,0-.04,0-.09,0-.13,0-.01.06-.07.06-.15.02-.18-.02-.37,0-.55-.31.17-.52-.11-.78-.18-.42-.11-.98-.24-1.39-.33-.51-.11-.28.19-.33.25,0,0-.18,0-.18,0-.02-.02.02-.23,0-.26-.08-.08-.82.11-.98,0,.51-.13,1.25-.38,1.77-.38l-.18.25c.21-.04.66.13.67-.19-.13.07-.31-.06-.37-.06.36-.1.82-.17,1.19-.19.18-.01.72-.05.82.06Z" style="fill: #eadfd1;"/>
    <path d="M25.58,32.07c.03-.58.06-1.15.18-1.72l.24.32v-.26c.37.1.62.03.98-.06-.08.33.17.26.39.4.1.06.09.21.23.18,0,.04,0,.09,0,.13.03.45,0,.98,0,1.46-.15.04-.13-.15-.22-.18-.42-.14-.3.13-.39.44-.02-.01-.05-.06-.06-.06.03-.39.1-.76.05-1.16-.03-.24-.29-1.06-.55-.6-.21.37-.22,1.35-.11,1.76h-.06c-.06-.19-.03-.53-.14-.68-.03-.04-.31-.24-.35-.21-.03.02,0,.31-.18.25Z" style="fill: #dacbb5;"/>
    <path d="M5.6,29.78c-.05-.03-.32-.54.02-.56.2,0,.23.17.3.2.08.03.21-.01.23,0,.05.05.03.16.07.21.09.1.4.18.53.21.02,0,.04,0,.06,0-.01.14,0,.14.12.13.01.01.05-.01.06,0v.06c-.09.21.23.25.43.29.09.02.25.08.31-.04.41.12.76.16,1.18.13.05-.01.13-.3.16-.38.14-.33.08-.15.22-.27.06-.05.06-.2.17-.17.01,0,.2.19.2.2.02.06-.05.14-.03.2.04.14.12.29.16.43-.01.12-.05.23-.06.32l-.18-.1v.6s.18-.19.18-.19c-.02.17-.05.33-.06.51-.04-.3-.22-.09-.28-.19-.07-.12,0-.42-.03-.45-.03-.03-.75.02-.89,0-.11-.02-.08-.12-.13-.13-.27-.07-.3,0-.62-.12-.41-.16-.79-.26-1.18-.48-.18-.1-.36-.37-.52-.41-.15-.04-.1.37-.24.38-.17,0-.02-.37-.03-.38-.02-.02-.15.02-.18,0Z" style="fill: #dacbb5;"/>
    <path d="M21.06,8.22c.03.48.16,1.14.61,1.37.23.11.5.12.73.19.06.02.14.01.12.09-.32.05-.85.11-1.1.35-.27.26-.26.69-.36,1.03-.03.11.05.18-.13.15,0-.47-.05-1.14-.53-1.32l-.93-.27c1.16-.15,1.31-.36,1.47-1.49.02-.11-.03-.11.12-.1Z" style="fill: #e7dccd;"/>
    <path d="M5.85,30.29c.04-.22.38-.07.51,0,.7.44,1.62.78,2.46,1.06.28.09.5-.01.69.4-.32.01-.64-.02-.95,0-.08,0-.14.07-.15.07-.4.01-.6,0-.98-.13-.17-.18-.37-.29-.61-.32-.04-.02-.09-.04-.12-.06.03-.5-.25-.38-.55-.57-.02-.02-.05-.04-.06-.06-.14-.21-.05-.26-.24-.38Z" style="fill: #c7b69d;"/>
    <path d="M18.37,35.44s0,.13-.06.22c-.67.94-2.61,1.18-3.12-.03.16-.23.69-.17.92-.1.15.04.11.2.27.23.41.08.93-.1,1.32-.26.3-.12.41-.4.67-.06Z" style="fill: #b29f86;"/>
    <path d="M23.13,33.34c-.03.64-.76,1.19-1.36,1-.18-.05-.37-.45-.42-.48-.02-.01-.44-.08-.48-.08v-.06l.06-.06c.51-.61,1.53-.65,2.2-.32Z" style="fill: #efe8df;"/>
    <path d="M27.59,30.92c-.14.03-.13-.12-.23-.18-.22-.13-.46-.07-.39-.4-.36.1-.6.17-.98.06v.26s-.24-.32-.24-.32c-.12.57-.15,1.14-.18,1.72,0,.14-.06.39-.06.45,0-.86-.11-2.46.68-3.02.84-.59,1.34.73,1.4,1.43Z" style="fill: #e2d5c2;"/>
    <path d="M23.19,33.34c.13.08.26.23.23.4,0,.03-.19.51-.21.55-.32.61-1.71.24-2.25.33-.16.03-.36.16-.43.31l-.15-.19-.06.38c-.02-.11-.08-.15-.06-.35.02-.26.33-.98.61-.99.04,0,.45.07.48.08.05.03.25.43.42.48.6.18,1.34-.36,1.36-1,.02,0,.05,0,.06,0Z" style="fill: #e5d8c8;"/>
    <path d="M23.62,35.05s0,.04,0,.06c0,.02,0,.05,0,.06-.02.02-.05.04-.06.06-.44,1.03-2.2,1.33-2.93.51-.03-.06-.12-.2-.02-.25.04-.02.36-.13.38-.12,0,0,0,.1.05.11.46.14,1.17.13,1.62,0,.05-.01.06-.1.12-.14.27-.17.49-.36.84-.3Z" style="fill: #b29f86;"/>
    <path d="M13.42,31.3l.12-.19c.31.18.24-.1.34-.13.08-.02.24.14.33.16.41.11.84.2,1.25.29.24.05,1.58.2,1.66.31.04.06.02.18.03.26l.12-.32c0,.16.01.32-.05.47-.04.07-.13.03-.19.04.03-.06.2-.05.06-.16s-.83-.15-1.06-.16c-.31-.02-.64.02-.95,0l.24-.19c-.23-.01-.47.01-.7,0-.46-.03-.93-.32-.83.45-.11-.01-.21,0-.28-.13-.02-.03-.08-.59-.09-.7Z" style="fill: #c7b69d;"/>
    <path d="M17.94,33.59c-.01.08.01.18,0,.25-.17,0-.16-.05-.25.09-.24.35-.43.79-.94.74-.31-.03-.21-.25-.31-.45s-.28-.41-.45-.51c.05-.03.06-.11.18-.16.53-.24,1.26-.23,1.77.03Z" style="fill: #efe8df;"/>
    <path d="M24.66,27.81c.18.04.12-.1.12-.22,0-.2,0-.41,0-.61.16-.22.12.45.12.51,0,.25,0,.51,0,.76.17.24.1-.49.12-.51.46.05.79.25,1.28.13-.13.19.03.09.12.19-.68.09-1.03.55-1.28,1.21-.05-.14-.28.03-.31,0-.03-.03.07-.26-.12-.19-.01.37.01.74,0,1.11,0,.16.04.21-.12.09,0-.04,0-.08,0-.13l.06-.03-.06-.03c0-.75.05-1.53.06-2.29Z" style="fill: #e2d5c2;"/>
    <path d="M10.37,32.45l.12-.44c-.06.25.11.26.19.41l.17.54c.07-.36.19-.08.34-.06.07,0,.39-.06.45-.1.21-.11.17-.34.25-.47.02-.03.03-.05.06-.06.05-.03.35-.09.37-.06-.02.23.06.45.18.64-.09.33-.34.9-.67,1.02.02-.05.13-.02.13-.22-.02-.5-.36-.48-.77-.42-.05,0-.38.12-.4.13-.01.01.11.23.06.32-.27-.32-.45-.77-.49-1.21Z" style="fill: #cebca5;"/>
    <path d="M19.41,30.16c0-.05-.06-.15-.06-.22l.1-.09,3.07-.71c-.02.93.03,1.87,0,2.8-.19.04-.12-.1-.12-.22-.03-.77.02-1.55,0-2.32-.17-.03-.1.04-.13.15-.07.25-.03.42-.05.65-.01.12.02.1-.12.09v-.89c-.42-.18-.33.37-.4.39-.61.11-1.41-.13-2.04.12v1.91l-.12-.67c0-.25,0-.51,0-.77,0-.12.06-.26-.12-.22ZM19.5,30.03v.06s.04-.04,0-.06Z" style="fill: #decfba;"/>
    <path d="M5.6,29.78s.16-.02.18,0c.01.01-.13.39.03.38.14,0,.09-.42.24-.38.16.04.34.31.52.41.39.22.76.32,1.18.48.32.12.35.06.62.12.05.01.02.12.13.13.14.02.86-.04.89,0,.02.03-.04.33.03.45.05.09.23-.11.28.19,0,.08,0,.17,0,.25h-1.28s.07-.06.15-.07c.32-.01.64.02.95,0-.19-.41-.41-.3-.69-.4-.84-.27-1.76-.62-2.46-1.06-.13-.08-.47-.23-.51,0,.19.12.11.17.24.38-.13-.07-.28-.22-.24-.38-.29-.19-.18-.26-.31-.45l.06-.06Z" style="fill: #d5c5ae;"/>
    <path d="M18,33.53s.1-.03.12.05c.2.61-.15,1.27-.77,1.41-.42.1-.65-.05-.97-.06-.21,0-.95-.04-1.09,0s-.08.2-.1.31c-.02.12.05.15-.12.13-.06-.41.08-.76.31-1.08,0,.33.52-.01.57,0,.06.02.09.16.16.21.22.17.54.33.81.29.41-.06.94-.54,1.01-.95.01-.08-.01-.17,0-.25,0-.01.05-.04.06-.06Z" style="fill: #e2d5c2;"/>
    <path d="M13.79,32.13c-.11-.76.37-.48.83-.45.23.02.47,0,.7,0l-.24.19c.31.02.64-.02.95,0,.23.01.93.06,1.06.16s-.03.1-.06.16c-.92.06-2.34.05-3.24-.06Z" style="fill: #b29f86;"/>
    <path d="M18.97,6.32c.05.26-.01.41-.17.6s-1.38,1.36-1.53,1.45c-.27.16-.28.02-.16-.22.32-.61,1.02-1.25,1.38-1.87.13-.08.34-.02.48.04Z" style="fill: #e7dccd;"/>
    <path d="M5.36,28.38c.05.03.14.01.18.09l1.22,1.37c-.13-.03-.45-.11-.53-.21-.04-.04-.02-.16-.07-.21-.02-.02-.15.02-.23,0-.08-.03-.1-.21-.3-.2-.34.01-.07.52-.02.56l-.06.06s-.14-.1-.21-.2c-.19-.27-.45-.81-.65-1.01-.05-.2.18-.13.23-.21.03-.05,0-.16.01-.17.02-.02.38.1.43.13Z" style="fill: #e2d5c2;"/>
    <path d="M11.57,5.94c.2-.06.29.03.41.18.31.41.83,1.32,1.08,1.8.13.24.28.6-.12.32l-1.5-1.8c-.07-.16-.06-.44.13-.5Z" style="fill: #e7dccd;"/>
    <path d="M32.3,19.22s0,.09,0,.13c-.11.1-.08.15.06.13.03.5.05,1.4,0,1.88-.02.19-.06.17-.12.28v-.44c-.16-.05-.15.19-.22.2-.14.02-1.08-.45-1.06.12-.1-.14-.13-.09-.18-.32.11-.13.06-.39.06-.57.15.02.37-.04.51,0,.04.01.42.56.65.51.12-.32.05-.6.06-.89,0-.21-.02-.44,0-.64,0-.08.12-.24.06-.38h.18Z" style="fill: #cebca5;"/>
    <path d="M28.94,15.53s.08,0,.12,0c.09,0,.23-.02.31,0,.09.02.13.1.18.13l-.06.19c-.3-.44-.92-.05-1.34,0,.1.28.13.49.13.8-.04,1.48-.05,3-.13,4.48l-.06.25c-.01.08,0,.17,0,.25-.01-.81-.05-1.65-.06-2.48,0-.34.06-.7.06-.99,0-.69-.18-1.39-.13-2.1.02-.21.16-.3.07-.47.31.06.64-.05.92-.06Z" style="fill: #efe8df;"/>
    <path d="M29.79,18.33c.83-.34,1.6.56,1.76,1.32.04.2,0,.42.07.62.06.17.11.08.25.09,0,0,.06.05.06.15,0,.24-.13.31-.33.16-.35-.26-.16-.48-.23-.84-.02-.08-.24-.73-.28-.79-.05-.09-.08-.17-.2-.15-.05.57-.06,1.14-.06,1.72,0,.18.05.45-.06.57-.13-.51-.02-1.1-.06-1.62-.02-.23-.18-.7-.18-.8,0-.05.17-.16-.04-.31s-.5.02-.7-.13Z" style="fill: #e7dccd;"/>
    <path d="M29.43,33.53c-.13.75-.68,1.32-1.44,1.33-.42,0,.03-.3.15-.48.11-.16.37-.78.44-.82.19-.1.63,0,.86-.03Z" style="fill: #c7b69d;"/>
    <path d="M11.95,10.07c.13.21-.12.19-.27.19-.55-.02-1.47-.1-2.01-.2-.49-.09-.44-.68.05-.63.26.12,2.17.54,2.23.64Z" style="fill: #e7dccd;"/>
    <path d="M36.51,34.8c-.15-.04-.41-.01-.49-.19.88,0,1.48-.27,2.02-.99.09-.12,0-.22.23-.27.26-.05.55,0,.81-.02-.03.41-.33.77-.61,1.02-.11-.11-.16-.38-.34-.32-.03,0-.02.12-.06.12-.04,0-.13-.08-.15-.06,0,0,0,.13-.03.19-.11.17-.44.12-.62.18-.09.03-.08.13-.13.14-.2.05-.61-.13-.63.19Z" style="fill: #cebca5;"/>
    <path d="M10.19,14c-.03-.05-.02-.26,0-.33.09-.29,1.64-1.09,1.94-1.35.43-.02-.07.41-.21.55-.28.27-.92.92-1.2,1.11-.13.08-.46.16-.54.03Z" style="fill: #e7dccd;"/>
    <path d="M30.71,26.28c-.31-.09-.87-.16-1.16-.29-.13-.06-.22-.31-.26-.33-.07-.04-.2.01-.29-.05-.06-.04-.08-.18-.2-.24-.28-.14-.9-.12-1.21-.34-.09-.06-.1-.16-.14-.2-.4-.31-.58,0-.73-.03-.03,0-.54-.28-.56-.3-.09-.09-.1-.21-.15-.32,1.65.46,3.21,1.24,4.7,2.1Z" style="fill: #e5d8c8;"/>
    <path d="M15.13,5.04c.01-.07-.02-.17.06-.23.17-.12.53,0,.5.25l-.37,2.51c-.12.02-.16-.05-.18-.16-.11-.63.08-1.59,0-2.26v-.13Z" style="fill: #e7dccd;"/>
    <path d="M25.45,24.12s-.03.05-.06.06c-.14.06-.17.19-.31.1-.1-.07-.01-.19-.33-.22s-.4.1-.67.13c-.69.08-2.16-.02-2.84-.13.15-.07.41-.11.58-.13,1.43-.15,2.28-.11,3.63.19Z" style="fill: #efe8df;"/>
    <path d="M43.97,19.73s0,.09,0,.13c-.01-.01-.06,0-.06.03,0,.07.09,0,.06-.03.09.62.22,1.19.06,1.84-.18-.3.12-.96-.31-1.08.08.37-.37.53-.48.87-.07.2.11.14.17.24,0,.01-.2.06-.12.22-.04-.02-.11,0-.16-.06-.08-.07-.06-.15-.09-.2-.14-.44,0-.31.11-.48.13-.21.27-.7.31-.95.02-.11-.01-.45,0-.47.05-.05.32.13.25-.19l.24.13Z" style="fill: #c7b69d;"/>
    <path d="M25.58,32.07c.19.06.15-.23.18-.25.04-.03.32.17.35.21.11.15.08.49.14.68-.22.06-.2.2-.24.42-.05.35,0,.7,0,1.04-.32-.47-.49-1.06-.49-1.65,0-.05.05-.3.06-.45Z" style="fill: #cebca5;"/>
    <path d="M10.24,32.07c.18.04.12-.1.12-.22,0-.27-.01-.53.06-.8l.27.06c.12.34.17.84.28,1.17.03.08.12.04.12.04.1.15.17.41.4.39.08,0,.32-.33.34-.39h.06c-.07.14-.04.37-.25.47-.07.03-.39.11-.45.1-.15-.02-.26-.3-.34.06l-.17-.54c-.08-.15-.25-.16-.19-.41l-.12.44c-.05-.08-.11-.3-.12-.38Z" style="fill: #e2d5c2;"/>
    <path d="M4.68,28.63c-.5-.53-1.26.22-1.34.13,0-.34.51-.78.79-.86.44-.12,1.04.01,1.22.48-.05-.02-.41-.14-.43-.13-.01.01.02.13-.01.17-.05.08-.28,0-.23.21Z" style="fill: #eadfd1;"/>
    <path d="M15.99,33.72c.18.1.36.33.45.51.1.19,0,.42.31.45.51.05.69-.4.94-.74.1-.14.09-.1.25-.09-.07.41-.6.89-1.01.95-.28.04-.6-.12-.81-.29-.07-.05-.1-.2-.16-.21-.06-.01-.58.33-.57,0,.19-.28.35-.4.61-.57Z" style="fill: #eadfd1;"/>
    <path d="M23.62,35.05c-.35-.06-.57.12-.84.3-.06.04-.07.13-.12.14-.45.13-1.16.14-1.62,0-.05-.02-.04-.11-.05-.11-.02,0-.33.1-.38.12-.1.05-.01.19.02.25-.17-.19-.14-.12-.24-.38l.09-.25c.07.52.14.15.2.13.15-.05.76-.11.87-.03.05.03.03.13.1.16.42.14,1.05-.13,1.42-.35.21-.13.66-.73.56.04Z" style="fill: #bfad96;"/>
    <path d="M29.55,18.33c.08,0,.16,0,.24,0,.2.15.49-.02.7.13s.04.26.04.31l-1.71.13c-.06-.2.05-.42.06-.57h.06c.2,0,.41-.01.61,0Z" style="fill: #decfba;"/>
    <path d="M36.51,34.8c.02-.33.43-.15.63-.19.04,0,.04-.1.13-.14.18-.07.51-.02.62-.18.04-.06.03-.18.03-.19.02-.02.12.05.15.06.04,0,.03-.11.06-.12.18-.06.22.21.34.32-.02.02-.04.05-.06.06-.06,0-.08.03-.12.06-.51.5-1.15.48-1.77.32Z" style="fill: #bfad96;"/>
    <path d="M44.03,21.7c-.11.46-.38.46-.73.25-.08-.16.13-.21.12-.22-.07-.1-.24-.04-.17-.24.11-.34.56-.5.48-.87.42.12.12.78.31,1.08Z" style="fill: #b29f86;"/>
    <path d="M14.34,32.96c-.07.53-1.05,1.35-1.59,1.11.23-.24.5-.51.67-.8l.49.06-.12-.16c.16-.21.29-.49.55-.22Z" style="fill: #c7b69d;"/>
    <path d="M10.85,33.66c.04-.09-.07-.31-.06-.32.01-.02.35-.12.4-.13.41-.06.75-.08.77.42,0,.19-.11.17-.13.22,0,.02,0,.12,0,.13-.11-.09-.54.2-.98-.32Z" style="fill: #c7b69d;"/>
    <path d="M18.31,34.8c-.08.33-.04.1-.25.28-.19.17-.07.27-.36.29,0,.04,0,.09,0,.13-.38.15-.91.33-1.32.26-.15-.03-.12-.19-.27-.23-.24-.07-.76-.13-.92.1-.03-.08-.11-.16-.12-.25.17.02.11-.01.12-.13.36.05.86-.07,1.19,0,.17.03.28.27.55.26.14,0,.2-.11.31-.13.15-.02.31.01.46,0,.03-.21.39-.55.61-.57Z" style="fill: #c7b69d;"/>
    <path d="M42.07,18.2s.04,0,.06,0c.61.02,1.15-.08,1.53.51-.09-.05-.16-.1-.27-.11-.4-.04-1,.08-1.47.05-.2-.01-.38-.07-.58-.07-.04-.22.31-.1.49-.16.15-.04.13-.08.12-.22.04,0,.08,0,.12,0Z" style="fill: #efe8df;"/>
    <path d="M30.95,21.51c-.02-.57.92-.1,1.06-.12.07-.01.06-.25.22-.2v.44s0,.09-.03.12c-.22.25-.91.13-1.15-.07-.1-.08-.07-.15-.1-.18Z" style="fill: #bfad96;"/>
    <path d="M24.6,30.29c.17.11.12.06.12-.09.01-.37-.01-.74,0-1.11.2-.07.09.16.12.19.03.03.26-.14.31,0,0,.02,0,.04,0,.06l-.06.03.06.03c-.23.69-.29,1.38-.37,2.1h-.12c-.02-.4-.07-.79-.06-1.21Z" style="fill: #cebca5;"/>
    <path d="M18,27.49c.1.08.18.27.31.25-.02.32-.03.79.06,1.08,0,.06,0,.13,0,.19-.28,0-.1.37-.12.53-.03.22-.16.39-.18.74h-.06s0-.08,0-.13c0-.11,0-.21,0-.32,0-.53,0-1.06,0-1.59,0-.25,0-.51,0-.76Z" style="fill: #efe8df;"/>
    <path d="M26.37,26.6s-.07.07-.15.07c-.17,0-.55-.08-.67,0-.09.06,0,.2-.05.25-.05.07-.39.06-.48,0-.06.07.13.61-.12.57,0-.06.04-.72-.12-.51,0,.2,0,.4,0,.61,0,.12.06.26-.12.22,0-.23-.04-1.14.12-1.24.12-.07.53-.02.7-.1l.89.13Z" style="fill: #eadfd1;"/>
    <path d="M29.36,27.81c-.2,0-.39-.08-.59-.12-.12-.02-.27.02-.35,0-.03,0-.14-.38-.27-.45-.23-.12-1.01.04-1.05,0v-.19c.16-.07.11.13.15.12.36-.03.26-.24-.06-.24-.39,0-.49.23-.7-.32.78,0,2.16.84,2.87,1.21Z" style="fill: #eadfd1;"/>
    <path d="M32.85,18.78c.28.03.33.18.49.36.01.18,0,.35,0,.53,0,.33,0,.68,0,1.02,0,.04,0,.08,0,.13h-.12c-.01-.24.1-.52-.18-.45,0-.35.01-.7,0-1.05,0-.08.05-.24-.06-.22-.02.52.03,1.05,0,1.56,0,.08-.06.14-.06.15-.02-.68.05-1.37-.06-2.03Z" style="fill: #e2d5c2;"/>
    <path d="M29.85,16.23s.11.2.06.32c.21.05,1.39-.08,1.46,0,.09.25-.16.22-.12.44-.23-.04-1.17.06-1.23.03-.11-.05-.23-.46-.24-.6,0-.07-.01-.16.06-.19ZM30.89,16.68h-.92c-.02.13-.01.1.08.14.24.11.58.02.84.05v-.19Z" style="fill: #eadfd1;"/>
    <path d="M11.95,32.26c-.03-.26.12-.62.11-.86,0-.17-.33-.6.07-.66.16.28,0,.91.12,1.1.05.08.17.04.22.1.09.13-.05.4.09.51-.02.12-.03.27-.06.38-.13-.18-.2-.41-.18-.64-.02-.02-.31.03-.37.06Z" style="fill: #e2d5c2;"/>
    <path d="M41.89,28.51c-.23.12-.35.17-.61.25-.06-.13-.2-.04-.29-.02-.25.06-.5.1-.75.15-.09-.09.58-.54.66-.56.06-.01.61.03.72.05.11.01.19.05.27.13Z" style="fill: #cebca5;"/>
    <path d="M3.23,24.68c-.33-.35.24-1.04.62-.49.33.46-.37.76-.62.49Z" style="fill: #e7dccd;"/>
    <path d="M23.5,28.06s.12.21.18.13c.03-.04-.06-.21.06-.19l.12.19s0,.08,0,.13c-.12.19-.05.52-.06.76-.03,0-.11-.01-.12,0-.06.08.09.64-.18.64-.02-.63-.06-1.02,0-1.65Z" style="fill: #e5d8c8;"/>
    <path d="M4.6,22.6c.71-.23.63,1.03-.03.7-.28-.14-.23-.62.03-.7Z" style="fill: #e5d8c8;"/>
    <path d="M19.71,26.79c0,.23-.26.2-.43.25-.33.1-.19.15-.24.19-.03.02-.27.17-.29.18-.32.1-.41-.16-.45.33-.13.01-.21-.17-.31-.25,0-.04,0-.09,0-.13,0-.01.05-.04.06-.06.01-.01.04,0,.06,0l.06-.06c.44-.2,1.05-.32,1.53-.45Z" style="fill: #eadfd1;"/>
    <path d="M26.68,28l.05-.06-.11-.07c.24.1.76-.15.9-.09.24.1.38.7-.04.66-.25-.21-.54-.26-.79-.45Z" style="fill: #e2d5c2;"/>
    <path d="M20.81,24.12c-.46.28-1.06.21-1.54.39-.38.14-.6.19-1.04.27-.1.02-.2.08-.29-.02.66-.19,2.28-.69,2.87-.64Z" style="fill: #efe8df;"/>
    <path d="M13.42,33.27c.06-.1.21-.62.29-.64.16-.04.45.03.63,0,0,.1.01.22,0,.32-.26-.26-.39.01-.55.22l.12.16-.49-.06Z" style="fill: #d5c5ae;"/>
    <path d="M18.61,32.57c-.21,0-.17.04-.18-.16-.04-.53,0-1.08,0-1.59,0-.22-.03-.49,0-.7.01-.09.05-.2.12-.09.02.71-.03,1.43,0,2.14,0,.11.07.2.07.21,0,.06,0,.13,0,.19Z" style="fill: #c7b69d;"/>
    <path d="M18.55,34.55c.01.1.06.3.06.32,0,.32-.14.38-.24.57-.26-.34-.37-.06-.67.06,0-.04,0-.09,0-.13.29-.03.17-.12.36-.29.21-.18.17.05.25-.28.02-.06.05-.11.06-.19l.18-.06Z" style="fill: #bfad96;"/>
    <path d="M5.03,24.27c.37.33-.08.81-.34.39-.2-.31.08-.61.34-.39Z" style="fill: #e2d5c2;"/>
    <path d="M2.31,28.94c-.21-.14.06-.72.39-.44.3.25-.15.6-.39.44Z" style="fill: #eadfd1;"/>
    <path d="M5.52,31.76c.26-.08.46.26.23.43-.42.31-.54-.34-.23-.43Z" style="fill: #e2d5c2;"/>
    <path d="M22.52,32.32c-.05.15-2.77.01-3.12.06l3.12-.06Z" style="fill: #e2d5c2;"/>
    <path d="M4.49,30.87c.15.1.06.73-.3.47-.2-.14,0-.67.3-.47Z" style="fill: #e2d5c2;"/>
    <path d="M42.25,27.11c-.1.08-.1.36,0,.45,0,.15,0,.3,0,.45-.18.04-.12-.1-.12-.22-.02-.49,0-.98,0-1.47,0-.11-.04-.28.06-.35.02.38.05.77.06,1.14Z" style="fill: #d5c5ae;"/>
    <path d="M32.3,19.22h-.18c.06.14-.05.3-.06.38-.16-.13,0-.38,0-.55,0-.09-.06-.14-.06-.15,0-.06,0-.13,0-.19.04,0,.09,0,.12,0,.04,0,.08-.05.12-.06.04.16.04.41.06.57Z" style="fill: #decfba;"/>
    <path d="M25.88,22.66c-.03-.22.07-.09.17-.08.47.03.95.02,1.42.02,0,.04,0,.08,0,.13-.53,0-1.06-.02-1.59-.06Z" style="fill: #eadfd1;"/>
    <path d="M41.89,22.66c-.02-.05-.08-.1-.06-.19h-.06c0,.08,0,.17,0,.25l-.12-.06c0-.08,0-.17,0-.25.01-.23.05-.56.12-.76,0,.01.05.07.06.15.03.27.03.59.06.86Z" style="fill: #dacbb5;"/>
    <path d="M18.06,30.35c-.03.63,0,1.3,0,1.94,0,.11.04.28-.06.35-.01-.78,0-1.57,0-2.35h.06s0,.04,0,.06Z" style="fill: #eadfd1;"/>
    <path d="M27.65,31.24c.03.35-.08.77.06,1.08,0,.19-.03.39-.06.57-.1-.07-.06-.26-.06-.38,0-.48.03-1.01,0-1.46.08.04.04.13.06.19Z" style="fill: #e2d5c2;"/>
    <path d="M33.03,20.37c0,.12.02.67,0,.7,0,.01-.09,0-.12,0,0-.08,0-.17,0-.25,0-.01.06-.07.06-.15.03-.52-.03-1.05,0-1.56.11-.01.06.14.06.22.01.35,0,.7,0,1.05Z" style="fill: #efe8df;"/>
    <path d="M29.67,15.66s.02.17.12.19c0,.02,0,.05,0,.06-.07.14-.13.22.06.19,0,.04,0,.09,0,.13-.07.03-.07.12-.06.19-.15-.15-.19-.4-.31-.57l.06-.19s.1-.01.12,0Z" style="fill: #e2d5c2;"/>
    <path d="M21.79,26.34c.06,0,.23.13.37.06-.01.32-.46.15-.67.19l.18-.25s.08,0,.12,0Z" style="fill: #e7dccd;"/>
    <path d="M7.74,30.29c-.06.12-.21.06-.31.04-.2-.04-.51-.08-.43-.29h.06c.23.04.44.19.67.25Z" style="fill: #eadfd1;"/>
    <path d="M6.15,30.73c.3.19.57.07.55.57-.26-.19-.37-.31-.55-.57Z" style="fill: #d5c5ae;"/>
    <path d="M8.17,29.4c.27-.12.56.1.85-.06l-.18.19c-.25-.04-.42-.05-.67-.13Z" style="fill: #eadfd1;"/>
    <path d="M32.17,28.12c-.25-.11-.52-.19-.73-.38.35.09.67-.05.73.38Z" style="fill: #e7dccd;"/>
    <path d="M17.27,29.27c-.14-.43-.02-.95-.06-1.4.11.12.06,1.14.06,1.4Z" style="fill: #c7b69d;"/>
    <path d="M9.75,31.05l-.18.19v-.6s.18.1.18.1c-.01.1.01.21,0,.32Z" style="fill: #cebca5;"/>
    <path d="M23.87,27.55c-.14-.41-.02-.91-.06-1.34.11.12.06,1.08.06,1.34Z" style="fill: #d5c5ae;"/>
    <path d="M17.27,31.49h-.06c.04-.43-.08-.93.06-1.34,0,.44.01.89,0,1.34Z" style="fill: #c7b69d;"/>
    <path d="M25.7,24.12l.06.13s.03.12-.04.13c-.07,0-.42-.07-.33-.19.03-.01.05-.04.06-.06.07.02.18-.02.24,0Z" style="fill: #e5d8c8;"/>
    <path d="M27.72,32.32c-.14-.31-.03-.74-.06-1.08.09.32.08.73.06,1.08Z" style="fill: #bfad96;"/>
    <path d="M24.78,31.49c-.03.3-.1.58-.06.89h-.06c-.04-.23.01-.63,0-.89h.12Z" style="fill: #efe8df;"/>
    <path d="M18,27.49c0,.25,0,.51,0,.76-.1-.18-.11-.71,0-.89,0,.04,0,.09,0,.13Z" style="fill: #59554b;"/>
    <path d="M42.25,27.55c-.1-.08-.1-.36,0-.45,0,.15,0,.3,0,.45Z" style="fill: #cebca5;"/>
    <path d="M21.06,24.05s.03.12-.04.13c-.1.02-.13-.06-.15-.07l.18-.06Z" style="fill: #efe8df;"/>
    <path d="M6.82,31.37c.24.03.44.14.61.32-.24-.08-.4-.18-.61-.32Z" style="fill: #d5c5ae;"/>
    <path d="M25.88,24.18s-.11.05-.12.06l-.06-.13c.08.02.14.05.18.06Z" style="fill: #efe8df;"/>
    <path d="M18,30.16c-.1-.04-.1-.28,0-.32,0,.11,0,.21,0,.32Z" style="fill: #59554b;"/>
    <path d="M28.08,21.38l.06-.25c0,.15-.05.2-.06.25Z" style="fill: #cebca5;"/>
    <path d="M11.83,33.97s.25,0,.12.13-.11-.12-.12-.13Z" style="fill: #191919;"/>
    <path d="M32.36,19.48c-.14.02-.17-.03-.06-.13,0,0,.05.01.06.13Z" style="fill: #decfba;"/>
    <path d="M6.82,29.84c.23.03.08.08.12.13-.13.02-.14,0-.12-.13Z" style="fill: #e2d5c2;"/>
    <path d="M41.46,18.2s.06,0,.06,0c.03.07-.18.11-.18,0,.03.01.09,0,.12,0Z" style="fill: #efe8df;"/>
    <path d="M41.28,18.2c-.09-.02-.12-.1-.12-.19,0,.01.11.18.12.19Z" style="fill: #eadfd1;"/>
    <path d="M38.41,34.42s-.06.07-.12.06c.04-.04.06-.07.12-.06Z" style="fill: #cebca5;"/>
    <path d="M15.13,5.17c-.09-.07,0-.1,0-.13v.13Z" style="fill: #59554b;"/>
    <path d="M7.07,30.03h-.06v-.06s.06.02.06.06Z" style="fill: #e2d5c2;"/>
    <path d="M16.78,27.93l.06-.06s-.04.06-.06.06Z" style="fill: #efe8df;"/>
    <path d="M18,27.36s.04-.04.06-.06c-.01.02-.06.05-.06.06Z" style="fill: #efe8df;"/>
    <path d="M24.66,32.38h.06l-.03.06s-.03-.04-.03-.06Z" style="fill: #59554b;"/>
    <path d="M41.64,18.2s.04,0,.06,0l-.03.06-.03-.06Z" style="fill: #efe8df;"/>
    <path d="M18.12,27.3s.03-.05.06-.06l-.06.06Z" style="fill: #efe8df;"/>
    <path d="M42.13,18.2s-.04,0-.06,0l.03-.06.03.06Z" style="fill: #59554b;"/>
    <path d="M41.52,18.2s-.04,0-.06,0l.03-.05s.03.05.03.05Z" style="fill: #59554b;"/>
    <path d="M20.87,33.72s.04-.04.06-.06l-.06.06Z" style="fill: #e5d8c8;"/>
    <path d="M13.36,28.76l-.06-.03.06-.03s0,.04,0,.06Z" style="fill: #efe8df;"/>
    <path d="M18.61,34.67l.06-.06s-.06.06-.06.06Z" style="fill: #59554b;"/>
    <path d="M25.15,29.4l-.06-.03.06-.03s0,.04,0,.06Z" style="fill: #e2d5c2;"/>
    <path d="M23.56,35.25s.04-.05.06-.06c0,.03-.03.05-.06.06Z" style="fill: #bfad96;"/>
    <path d="M24.6,30.16s0-.04,0-.06l.06.03-.06.03Z" style="fill: #cebca5;"/>
    <path d="M25.39,20.88c-.02-.26-.29-1.68-.38-1.86-.08-.17-.32-.22-.42-.07-.04.07-.1.31-.13.42-.25.83-.46,1.68-.66,2.53-.17.13-.43-.8-.76-.77-.28.03-.55.86-.8,1.01s-.76.09-1.06.2l.61-4.42c1.26-.34,2.52-.72,3.79-1.02.28-.07,1.55-.38,1.72-.26.04.03.05.08.06.13l.06,5.12-1.77.06s-.05-.03-.06-.06l-.18-.83c0-.06,0-.13,0-.19Z" style="fill: #0f0f10;"/>
    <path d="M21.12,18.08l-.55,4.3c-1.67.26-3.36.57-4.95,1.17l.73-4.36,4.76-1.11Z" style="fill: #0f0f10;"/>
    <path d="M10.92,22.59c.15-.04.11-.17.12-.28.1-.62.19-1.25.32-1.87l4.2-1.03-.52,4.26c-.13.2-2.44.95-2.84,1.08-.09.03-.18.11-.24.13-.4.13-.87.24-1.28.32.09-.69.19-1.47.24-2.16.01-.18.01-.2,0-.38,0-.02,0-.04,0-.06Z" style="fill: #0f0f10;"/>
    <path d="M7.43,21.57l3.24-.89c-.07.51-.12,1.02-.18,1.53-.12,1.01-.24,2.12-.43,3.12-.17.04-.35.09-.53.12-.58.09-1.77.27-2.3.12-.13-.04-.23-.12-.35-.17-.35-.9.12-1.39.06-2.1.06-.02.06-.07.06-.13,0-.04,0-.09,0-.13.13-.25.17-.55.24-.83,0-.04,0-.09,0-.13l.06-.13c.03-.11.16-.23.12-.38Z" style="fill: #0f0f10;"/>
    <path d="M35.9,16.04c.06,0,.11,0,.12,0,.06,0,.12,0,.18,0-.03.07.22.49.24.51-.56.58.37.25.49.38-.23.72.36.31.67.48.18.09.1.47.2.59.08.1.33.04.4.09.1.07.05.59.1.76.06.21.33.85.43,1.08.05.11.22.17.26.3.02.07.14,1.29.14,1.38-.01.21-.11.78-.15.99-.03.15-.26.93-.31,1.01-.08.12-.52.2-.67.2-.52,0-1.16-.11-1.56-.48-.32-.3-.54-.5-.88-.8-.17-.15-.36-.5-.49-.58-.15-.09-.27-.04-.4-.09-.12-.04-.58-.59-.7-.74-.21-.28-.09-.53-.65-.44,0-.34,0-.68,0-1.02l.49-.06c-.13.55.3.42.42.61.16.23.05.95.4.98.11,0,.23-.11.33-.04.04.03.34.44.46.55.17.16.4.31.56.46.14.14.24.4.45.58.5.45,1.06.48,1.7.34.06-.29.4-.49.47-.75.04-.14.09-.81.09-.99,0-.15-.08-.92-.12-1.02-.12-.26-.4-.12-.51-.36-.09-.2.06-.64-.12-.86-.04-.05-.16-.04-.21-.1-.09-.1-.16-.32-.31-.35-.14-.04-.29.1-.39.03-.12-.09,0-.51-.15-.55-.22-.05-.05.43-.3.32-.07-.03-.12-.21-.22-.28s-.25-.08-.31-.13c-.03-.03-.28-.71-.32-.81-.17-.46-.49.03-.58.07-.04.02-.46.14-.48.14-.15,0-.3-.35-.27-.51l-.27.13c-.13-.09-.07-.26-.12-.38-.1-.21-.5-.1-.7-.13v-.51c.86.05,1.68-.06,2.57,0Z" style="fill: #e7dccd;"/>
    <path d="M33.82,15.73c-.54-.06-.61-.11-.79-.7.1-.09,2.37.28,2.7.34.57.11,2.02.37,2.48.6.22.11.5.51.14.59-.02,0-.04,0-.06,0-.06-.11-.17-.1-.27-.13-.54-.14-1.26-.32-1.8-.38-.06,0-.12,0-.18,0-.02-.06-.07-.06-.12-.06-.69-.1-1.38-.17-2.08-.25Z" style="fill: #0f0f10;"/>
    <path d="M7.25,20.68s.36-.06.43-.06c.04.19-.12.09-.21.19-.13.14-.08.57-.03.76.03.15-.09.27-.12.38,0,.01-.04.06-.06.13,0,.04,0,.09,0,.13-.39.1-.1-.62-.18-.7-.02-.02-.19.01-.24,0-.06-.17.11-.1.12-.17s-.01-.15,0-.21c.34-.19.24-.38.31-.45Z" style="fill: #e5d8c8;"/>
    <path d="M35.9,15.98v.06c-.89-.06-1.71.05-2.57,0-.12,0-.29.07-.24-.13.19,0,.72.12.73-.19.69.08,1.39.16,2.08.25Z" style="fill: #efe8df;"/>
    <path d="M32.91,15.98c-.03.18.11.83-.15.83-.04,0-.01-.09-.08-.12-.13-.07-.38-.05-.38-.32.35.11.46,0,.43-.38h.18Z" style="fill: #e7dccd;"/>
    <path d="M25.39,20.88c0,.06,0,.13,0,.19,0,0-.06.05-.06.1,0,.15.14.29-.03.41-.15.03-.09-.12-.09-.22,0-.17-.07-.48.18-.48Z" style="fill: #e5d8c8;"/>
    <path d="M35.35,18.33c-.1-.14.26-.29.3-.09s-.27.15-.3.09Z" style="fill: #e7dccd;"/>
    <path d="M38.34,16.55v.13s-.06.09-.12.06v-.19s.04,0,.06,0,.04,0,.06,0Z" style="fill: #e7dccd;"/>
    <path d="M38.77,16.49c.01.09-.07.25-.12.13.01-.01-.02-.11,0-.13s.11.01.12,0Z" style="fill: #e7dccd;"/>
    <path d="M32.85,15.53s-.25,0-.12-.13.11.12.12.13.25,0,.12.13-.11-.12-.12-.13Z" style="fill: #e7dccd;"/>
    <path d="M38.56,16.04s.04.04,0,.06v-.06Z" style="fill: #e5d8c8;"/>
    <path d="M32.11,22.59s.06.06.18.03c.25-.06.27-.26.41-.34.1-.06.32-.06.37-.13.06-.09-.05-.66.03-.83h.18s.06.57.06.57c.32-.07.32-.2.63.01.2.14.26.38.44.5.16.11.35.11.52.22.21.14.4.47.62.63.46.35,1.63,1.02,2.18,1.1.19.03.91.06,1.05-.02.13-.07.13-.27.2-.33.06-.05.19-.02.26-.14s.36-1.27.38-1.45c.04-.4,0-.8.01-1.19,0-.24-.03-.79,0-.95.03-.17.2-.21.23-.33.03-.1.07-.76.02-.82-.08-.1-.25-.04-.18-.24.01-.04.29-.41.32-.43.12-.08.35.07.45-.23.06-.2-.11-.13-.16-.25-.03-.08-.1-.63-.07-.66.15-.15.29.19.43.19,0,.04,0,.09,0,.13.02.12.12.21.12.29.01.14-.11.21-.13.32-.03.25.57.53.8.47.04.37-.09.3-.24.42-.07.05-.06.15-.07.15-.03.02-.3,0-.41.08-.3.22-.29.96-.33,1.28-.15,1.15-.19,2.71-.57,3.79-.11.31-.53.65-.84.72-.14.04-.82,0-.99-.03-.65-.09-1.27-.36-1.87-.6-.2-.08-.59-.13-.75-.23-.12-.08-.09-.2-.16-.28-.31-.36-.84-.17-1.24-.3-.1-.03-.16-.17-.29-.21-.21-.08-.52-.05-.74-.12-.26-.08-.89-.45-.85-.8Z" style="fill: #e2d5c2;"/>
    <path d="M38.28,16.55s-.04,0-.06,0c-.21,0-.42-.05-.58-.05-.2,0-1.08.12-1.19.05-.02-.02-.27-.44-.24-.51.55.06,1.26.24,1.8.38.1.03.21.02.27.13Z" style="fill: #eadfd1;"/>
    <path d="M31.81,22.66c.03.15-.11.31-.11.42s.17.19.08.34c-.17.27-.14-.29-.4-.26,0-.17,0-.34,0-.51.14,0,.29.01.43,0Z" style="fill: #e2d5c2;"/>
    <path d="M38.47,17.06c-.14-.35.44-.39.49-.16.04.21-.39.16-.49.16Z" style="fill: #e7dccd;"/>
    <path d="M33.34,20.81c0,.15,0,.3,0,.45-.18-.06-.11-.29-.12-.45h.12Z" style="fill: #eadfd1;"/>
    <path d="M38.22,16.93c.07.07-.05.2-.12.13s.05-.2.12-.13Z" style="fill: #e7dccd;"/>
    <path d="M33.4,27.04s.08,0,.12,0c.04.11.18.05.24.06.16.04.34.1.55.13.04,0,.08,0,.12,0,.48.19,1.07.21,1.59.25.25.02.47.05.73.06.14,0,.29,0,.43,0,.18,0,.37,0,.55,0,.34,0,.7.01,1.04,0,.19,0,.35-.05.49-.06.06,0,.12,0,.18,0,.02,0,.04,0,.06,0,.5-.05,1.06-.1,1.53-.32.2-.03.46-.17.61-.06v.06s-.05,0-.06.03c-.01.09,0,.19,0,.29,0,.09.02.19,0,.27-.07.2-.76.31-.97.36-1.98.51-6.12.42-7.93-.61-.39-.22-.32-.35-.31-.79.34.11.68.26,1.04.32Z" style="fill: #0f0f10;"/>
    <path d="M33.52,27.04c.06,0,.22-.04.31,0l-.06.06c-.07-.02-.2.04-.24-.06Z" style="fill: #decfba;"/>
    <path d="M34.44,27.23c.4.04.77,0,1.19,0s1.15-.06,1.53,0c.08.01.02.24.04.32-.14,0-.29,0-.43,0-.16-.08-.43-.11-.61-.13l-.03-.06-.03.06s-.05.04-.06.06c-.52-.04-1.11-.06-1.59-.25ZM36.76,27.42c.07-.07-.03-.2-.12-.03,0,.06.12.04.12.03Z" style="fill: #dacbb5;"/>
    <path d="M41.03,27.17c-.46.22-1.03.26-1.53.32l-.03-.06-.03.06c-.06,0-.12,0-.18,0,0-.03-.03-.06-.06-.06-.05-.11-.21-.06-.31-.06-.02.1.09.06.18.06-.06.01-.24.08-.31.13-.34.01-.69,0-1.04,0-.03-.19.09-.12.21-.13.19,0,.6.04.73,0,.07-.02.02-.19.03-.19h1.19c.27,0,.5.04.82,0,.09-.01.2-.05.31-.06Z" style="fill: #dacbb5;"/>
    <path d="M38.53,27.23c-.09.15-.41.02-.55.06.08-.15.41-.03.55-.06Z" style="fill: #dacbb5;"/>
    <path d="M10.06,25.33s.02.08-.01.12c-.94.32-2.02.24-3,.26-.18-.05-.13-.21-.17-.31.12.05.22.14.35.17.52.15,1.72-.03,2.3-.12.18-.03.35-.08.53-.12Z" style="fill: #eadfd1;"/>
    <path d="M11.95,24.88l-.06.25c.23.03.56-.24.49.13-.07.08-.74-.06-.89-.06-.26,0-.58.21-.89.13-.03-.08.06-.12.06-.13.41-.08.89-.19,1.28-.32Z" style="fill: #eadfd1;"/>
    <path d="M10.92,23.04c-.1-.06-.1-.32,0-.38.01.18.01.2,0,.38Z" style="fill: #eadfd1;"/>
    <path d="M7.01,23.16c0,.05,0,.11-.06.13,0-.03-.18-.15.06-.13Z" style="fill: #eadfd1;"/>
    <path d="M31.81,29.84c.13.05.31.18.47.24.6.22,1.21.44,1.85.52.16.15.49.18.42.46-.02.09-.24.26-.32.3-.4.2-1.66.19-2.13.11-.32-.05-.61-.2-.78-.49,0-.34,0-.68,0-1.02,0-.04,0-.08,0-.13v-.06c.1-.09.35,0,.49.06Z" style="fill: #0f0f10;"/>
    <path d="M34.74,31.43s-.02.09.01.11c.13.12,2.08,0,2.4.01.86.01,1.8.12,2.63.25.34.05.5.07.76,0,.05-.01.18,0,.24,0,.1.01.17.08.37.06.03.19-.1.12-.21.13-.98.03-1.81-.13-2.75-.19-.86-.06-1.82.01-2.69,0-.41,0-.81-.07-1.25-.07,0-.06.01-.14,0-.19.21.07.17-.12.18-.13.01,0,.29,0,.31,0Z" style="fill: #c7b69d;"/>
    <path d="M40.54,31.81c-.26.07-.42.05-.76,0-.83-.13-1.77-.24-2.63-.25-.32,0-2.27.11-2.4-.01-.03-.03,0-.11-.01-.11l.09-.26c.23.06.45.19.69.24.58.11.97-.02,1.51-.05.84-.04,2.49.03,3.21.35.1.05.24,0,.3.1Z" style="fill: #cebca5;"/>
    <path d="M41.64,30.67v.64s-.04.05-.06.06c-.07.04-.12.14-.23.17-.31.09-.75.07-.97-.19-.42-.51.96-.69,1.17-.87.08.03.07.17.09.19Z" style="fill: #0f0f10;"/>
    <path d="M41.64,30.67c.1.12.47.04.49.06.06.06-.05.46-.06.57-.13.02-.31-.03-.43,0v-.64Z" style="fill: #cebca5;"/>
    <path d="M41.64,31.62c0,.06.08.23.06.25-.02.02-.31-.05-.37-.06-.04-.18.17-.17.31-.19Z" style="fill: #c7b69d;"/>
    <path d="M41.28,31.81s-.09.06-.12.06c-.19.02-.27-.05-.37-.06.08-.24.34-.03.49,0Z" style="fill: #cebca5;"/>
    <path d="M34.44,31.43s.03.2-.18.13c0,0-.09-.04-.06-.13h.24Z" style="fill: #cebca5;"/>
    <path d="M31.32,30.99c-.11-.19-.13-.28-.12-.51l.12-.51c0,.34,0,.68,0,1.02Z" style="fill: #dacbb5;"/>
    <path d="M31.32,29.84s-.08,0,0-.06v.06Z" style="fill: #dacbb5;"/>
    <path d="M29.06,15.53c-.04-.17.14-.18.27-.19l.03.19c-.08-.02-.22,0-.31,0Z" style="fill: #eadfd1;"/>
    <path d="M29.79,15.85c-.1-.02-.11-.18-.12-.19l.06-.06c.36-.03.07.23.06.25Z" style="fill: #eadfd1;"/>
    <path d="M29.79,15.92c.25-.03.06.14.06.19-.19.02-.13-.05-.06-.19Z" style="fill: #eadfd1;"/>
    <path d="M29.67,15.66c0-.05.01-.06.06-.06l-.06.06Z" style="fill: #efe8df;"/>
    <path d="M23.5,27.93s0,.09,0,.13c-.06.64-.02,1.03,0,1.65.28,0,.13-.56.18-.64,0-.01.1,0,.12,0-.02.53-.12.54-.18.86-.03.18.02.41,0,.6-.17.03-.1-.04-.13-.15-.08-.29.02-.41,0-.68-.17,0-.09-.15-.24-.13.01-.43-.07-1.12,0-1.49.03-.16.11-.17.24-.16Z" style="fill: #decfba;"/>
    <path d="M19.71,27.11c.14.16-.31.18-.37.03.05-.07.33-.07.37-.03Z" style="fill: #efe8df;"/>
    <path d="M19.28,27.04s0,.09,0,.13l-.06.06s-.13-.01-.18,0c.06-.04-.08-.09.24-.19Z" style="fill: #efe8df;"/>
    <path d="M18.74,28.63c-.07.19-.11.26-.12.47-.08,1.05.06,2.21,0,3.28,0-.01-.06-.1-.07-.21-.03-.71.03-1.43,0-2.14-.08-.1-.11,0-.12.09-.03.21,0,.48,0,.7-.01.51-.04,1.06,0,1.59.01.2-.03.16.18.16.02.63.12,1.44.06,2.03l-.06.06c-.01.05,0,.13,0,.19,0-.02-.05-.22-.06-.32s0-.21,0-.32c-.08-.09-.23.19-.24.28,0,.05.06.09.06.1-.01.08-.05.13-.06.19-.22.02-.59.37-.61.57-.15.01-.3-.02-.46,0-.1.02-.17.12-.31.13-.27.01-.39-.22-.55-.26-.33-.07-.83.05-1.19,0,.02-.11-.04-.26.1-.31s.88-.02,1.09,0c.33.01.55.16.97.06.61-.14.96-.8.77-1.41-.02-.07-.12-.04-.12-.05-.02-.04,0-.75,0-.89.1-.07.06-.24.06-.35,0-.64-.04-1.31,0-1.94.09-.03.24.09.24-.09.02-.4.02-.86.06-1.24,0-.06,0-.13,0-.19.01-.11.1-.44.18-.48l.3.07c-.05.06-.09.15-.12.22Z" style="fill: #d5c5ae;"/>
    <path d="M19.22,27.23l.06-.06c-.01.05-.02.05-.06.06Z" style="fill: #eadfd1;"/>
    <path d="M36.7,32.32s-.04.11-.12.06c-.04-.02.04-.11.12-.06Z" style="fill: #bfad96;"/>
    <path d="M28.57,31.81c.01-.21-.04-.44.03-.64.21.2.32.05.48.07.65.09,1.28.21,1.95.08.11.08.24.13.34.21.05.04.06.15.07.15.07.05.2-.14.27-.13.06.02.1.19.15.22.08.05.41-.18.37.09-.65,0-1.08-.16-1.68-.19-.34-.02-1.3-.06-1.59,0-.07.01-.01.17-.03.19-.04.04-.29-.04-.37-.06Z" style="fill: #cebca5;"/>
    <path d="M32.85,31.81c-.07.11-.25.06-.37.06-.04-.28.26-.07.37-.06Z" style="fill: #cebca5;"/>
    <path d="M41.77,22.72c0,.19.02.42,0,.61-.01.09-.05.2-.12.09,0-.25,0-.51,0-.76l.12.06Z" style="fill: #d5c5ae;"/>
    <path d="M41.64,27.11s.09.02.06.09c-.01.09-.06-.03-.06-.03v-.06Z" style="fill: #d5c5ae;"/>
    <path d="M18.37,29.01c-.04.38-.04.85-.06,1.24,0,.18-.15.07-.24.09,0-.02,0-.04,0-.06.03-.35.15-.52.18-.74.02-.17-.16-.54.12-.53Z" style="fill: #e5d8c8;"/>
    <path d="M18.37,34.61s-.06-.05-.06-.1c0-.09.16-.38.24-.28,0,.1-.01.21,0,.32l-.18.06Z" style="fill: #c7b69d;"/>
    <path d="M11.83,32.32c-.02.06-.25.38-.34.39-.23.02-.3-.24-.4-.39-.19-.37-.16-1.78.4-1.72.46.05.46,1.38.34,1.72Z" style="fill: #0f0f10;"/>
    <path d="M30.83,20.62c0-.58,0-1.14.06-1.72.12-.02.15.06.2.15.03.06.26.72.28.79.08.35-.12.58.23.84.2.15.33.08.33-.16,0-.1-.06-.14-.06-.15,0-.04,0-.08,0-.13h.18c-.01.29.06.57-.06.89-.23.05-.61-.5-.65-.51-.14-.03-.35.02-.51,0Z" style="fill: #decfba;"/>
    <path d="M32.05,19.6c-.02.2,0,.43,0,.64h-.18c-.01-.28-.08-.75-.06-.98.01-.14.05-.28.19-.35,0,.01.06.06.06.15,0,.16-.16.41,0,.55Z" style="fill: #e7dccd;"/>
    <path d="M29.55,18.33c-.2-.01-.41,0-.61,0-.01-.27-.04-.15.12-.16.18,0,.49-.12.49.16Z" style="fill: #e7dccd;"/>
    <path d="M31.99,18.71c.02-.23.13-.2.12,0-.04,0-.08,0-.12,0Z" style="fill: #e7dccd;"/>
    <path d="M39.57,28.63c.07.03-.21.16-.24.13v-.13s.24,0,.24,0Z" style="fill: #e2d5c2;"/>
    <path d="M39.17,28.63s.04.04,0,.06v-.06Z" style="fill: #e2d5c2;"/>
    <path d="M26.92,32.7c-.11-.01-.02.39-.34.39-.09,0-.25-.31-.27-.39-.11-.41-.1-1.39.11-1.76.26-.46.51.36.55.6.06.4-.01.77-.05,1.16Z" style="fill: #0f0f10;"/>
    <path d="M19.5,30.03s.04.04,0,.06v-.06Z" style="fill: #d5c5ae;"/>
    <path d="M43.97,19.86s-.06.1-.06.03c0-.02.05-.05.06-.03Z" style="fill: #e5d8c8;"/>
    <path d="M30.89,16.68v.19c-.26-.03-.6.06-.84-.05-.09-.04-.09-.02-.08-.14h.92Z" style="fill: #e5d8c8;"/>
    <path d="M7.25,22.08c.02-.07.06-.11.06-.13l-.06.13Z" style="fill: #eadfd1;"/>
    <path d="M36.02,16.04s-.06,0-.12,0v-.06c.05,0,.11,0,.12.06Z" style="fill: #eadfd1;"/>
    <path d="M36.15,27.42c.18.02.45.05.61.13-.27-.01-.48-.04-.73-.06,0-.03.03-.06.06-.06.02,0,.04,0,.06,0Z" style="fill: #c7b69d;"/>
    <path d="M39.2,27.42s.05.03.06.06c-.13.01-.3.06-.49.06.06-.04.24-.12.31-.13.03,0,.09,0,.12,0Z" style="fill: #c7b69d;"/>
    <path d="M39.51,27.49s-.04,0-.06,0l.03-.06.03.06Z" style="fill: #c7b69d;"/>
    <path d="M36.76,27.42s-.13.02-.12-.03c.1-.17.19-.04.12.03Z" style="fill: #d5c5ae;"/>
    <path d="M36.15,27.42s-.04,0-.06,0l.03-.06.03.06Z" style="fill: #d5c5ae;"/>
    <path d="M39.2,27.42s-.09,0-.12,0c-.09,0-.2.04-.18-.06.09,0,.25-.04.31.06Z" style="fill: #d5c5ae;"/>
  </g>
</svg>